<?xml version="1.0" encoding="utf-8"?>
<!-- Generator: Adobe Illustrator 22.1.0, SVG Export Plug-In . SVG Version: 6.00 Build 0)  -->
<svg version="1.1" id="Layer_1" xmlns="http://www.w3.org/2000/svg" xmlns:xlink="http://www.w3.org/1999/xlink" x="0px" y="0px"
	 viewBox="0 0 50 52.4" style="enable-background:new 0 0 50 52.4;" xml:space="preserve">
<g>
	<g>
		<path d="M25.8,0c-0.2,0-0.5,0-0.7,0c-2.3,1.7-0.5,4.6-0.5,8.5C28.8,9.8,27.7,1.8,25.8,0z"/>
		<path d="M20.6,10.2c0.2-2.8-2-5.6-3.3-8.3c-0.9-0.2-1.3,0.4-1.7,0c-1.1,2.7,1.7,5.6,2.6,8.5C19.4,10.6,19.1,9.9,20.6,10.2z"/>
		<path d="M9.9,19.2c0.5-2.3-2.5-1.9-1.9-3.5c-2.4-0.5-5.7-2.4-6.2,0.2C1.5,18.3,7.1,19.1,9.9,19.2z"/>
		<path d="M41.4,20.1c1.1,0,0.9-0.2,1.9,0.2c1.6-1.2,3.9-1.8,5.4-3.1c0.2-1.2-0.2-1.9-0.7-2.4c-1.4-0.3-1.7,0.5-2.4,0.9
			C43.6,17,38.8,17.6,41.4,20.1z"/>
		<path d="M0.5,24.1c-0.3,0.1,0,0.9-0.5,0.9c0,0.2,0,0.3,0,0.5c0.4,0.2,0.4,0.8,0.7,1.2c2,0,5-0.4,7.6-0.5
			C9.6,21.9,4.1,23.3,0.5,24.1z"/>
		<path d="M9.7,31.2c-1.1-0.4-2.4,0.2-3.5-0.5C6.6,31,3,32.2,2.4,32.9c-0.8,0.9-0.4,2.3,0,2.8c1.8,0.7,2-0.3,4-1.4
			c1.6-0.9,3.7-0.8,3.5-2.6C9.8,31.7,9.7,31.5,9.7,31.2z"/>
		<path d="M32.9,10.2c1.1-0.4,0.4-0.9,1.7-0.7c-0.4-2,3-5.3,0.7-7.6c-0.5,0-0.9,0-1.4,0c-1,2.2-2,4.4-2.6,7.6
			C31.8,9.7,31.9,10.4,32.9,10.2z"/>
		<path d="M12.8,14.2c1.3,0.3,1.6-1.6,1.9-0.2c0.8-2.7-3.7-5.5-6.2-7.1C5.4,9.3,11.2,12.1,12.8,14.2z"/>
		<path d="M40.2,23c-1.4-9.1-11.4-14.8-20.6-11.8c-1.2,0.4-3,2-3.8,1.9c-0.8,1-1.1,1.9-2.6,1.7c-0.2,2.4-1.3,0.8-1.2,3.5
			c-0.5-0.1-0.9,0-1.2,0.2c-0.5,2.8-2.1,5.7-0.5,8c-0.3-0.1-0.4-0.4-0.7-0.5c0.4,6.8,4.7,11.5,10.2,14c0.2,1.6-0.7,4.4,0,6.2
			c0.5,1.2,1.9,1.1,1.9,2.1c1.1,0.1,2,0.1,3.1,0.7c-1.6,0-1.7,0.1-2.8,0.7c-1.1,4.2,3.4,2.3,5.9,2.4c0.1-0.5,0.6-0.7,0.5-1.4
			c-0.5-1-2.2-0.8-2.6-1.9c5.1,0.5,5.6-4.5,4.7-9.2C36.2,36.7,41.5,31.3,40.2,23z M27.7,45.9c-1.9,0.4-2.9-0.8-4.3-1.2
			c-0.3-1.2-0.2-2.8-0.2-4.3c2.4,0.8,3.5-0.5,5-0.5C27.9,42.3,28.9,44.6,27.7,45.9z M26.7,38.1c-0.9-0.6-2.8-0.2-3.8-0.7
			c0.4-0.7,1.5-0.7,1.9-1.4c-0.3-3.8-2.1-7.3-3.3-11.4c1.4-2.3,6.3-2.3,8.3-0.5c-1,4-2.8,7.1-3.5,11.4c0.2,0.4,0.4,0.8,1.2,0.7
			c2.6-2.8,2.4-8.5,5-11.4c0.2-0.9-0.3-1.1-0.2-1.9c-2.2-1.5-5.3-4.1-7.8-2.6c-0.7-0.7-0.2-0.4-1.2-0.9c-0.8,0.2-0.4,0.4-0.7,0.9
			c-0.3-0.8-1.4-0.2-1.4,0.7c-1.2-0.5-1.4,0.3-2.6,0.5c-0.4,0.6-1.3,1.8-1.2,2.8c0.1,0.8,1,1.6,1.2,2.6c0.3,1.5,1.8,4.2,2.1,5.2
			c0.7,2.2,0.6,3.9,2.4,4.5c-0.3,1.4-1.6-0.3-2.1,0.2c-0.3-0.1-0.2-0.4,0-0.5c-0.5-0.1-0.7-1.1-1.5-0.5c-0.1-0.6-0.6-1-1.7-0.7
			c0.8-1.7-2.7-2.3-2.1-3.8c-0.8,0.1-0.9-0.7-1.7-0.7c0-0.3,0.4-0.2,0.7-0.2c-2.6-4.1-1-10.1,1.9-13.3c0.2-0.2,0.1-0.8,0.2-0.9
			c4-3.6,10.8-3.8,15.9-1.7c0,0.7,0.5,1.1,1.4,1.4C41.9,22.2,36.8,38.1,26.7,38.1z"/>
		<path d="M40.5,13.5c0.9-2.1,3.7-3.1,3.1-5.9c-2-1.5-2.5,0.2-3.3,1.4c-1,1.5-4,2.8-3.3,4.3C38.6,14.8,39.6,12.7,40.5,13.5z"/>
		<path d="M49.9,24.9c-2.3-1.9-8.9-2.8-8.3,1.4c0.7,1.2,2.5,0.4,4.3,0.2C47.4,26.4,50.5,27.1,49.9,24.9z"/>
		<path d="M45.9,31.5c-1.2,0.2-2.9-1.2-5-0.9c-0.4,0.6-0.8,1.2-0.9,2.1c1.9,1.8,5,2.5,8,2.6C48.1,32.5,46.1,33,45.9,31.5z"/>
	</g>
</g>
</svg>
