<?xml version="1.0" encoding="utf-8"?>
<!-- Generator: Adobe Illustrator 22.0.0, SVG Export Plug-In . SVG Version: 6.00 Build 0)  -->
<svg version="1.1" id="Layer_1" xmlns="http://www.w3.org/2000/svg" xmlns:xlink="http://www.w3.org/1999/xlink" x="0px" y="0px"
	 viewBox="0 0 84 80" style="enable-background:new 0 0 84 80;" xml:space="preserve">
<style type="text/css">
	.st0{fill:#788188;}
</style>
<title>Page 1</title>
<desc>Created with Sketch.</desc>
<g id="Page-1_1_">
	<g id="home-step-1" transform="translate(-461.000000, -1198.000000)">
		<g id="section-steps" transform="translate(0.000000, 799.000000)">
			<g id="steps" transform="translate(106.000000, 356.000000)">
				<g id="col-3" transform="translate(275.000000, 0.000000)">
					<g id="Page-1" transform="translate(80.000000, 43.000000)">
						<path class="st0" d="M80.1,76.1h-4.1l-2.3-32.8h6.5V76.1z M6.6,76.1H3.9V43.3h5L6.6,76.1z M3.9,34.1h59.7h6.6h9.8v5.2h-8.6
							H11.1H3.9V34.1z M65.6,30.2h2.6v-7.9h-2.6V30.2z M13.1,22.3h36.8v-2.6H13.1V22.3z M13.1,6.6h36.8V3.9H13.1V6.6z M13.1,17h36.8
							V9.2H13.1V17z M82,30.2h-9.8v-5.2h1.3v2.6c0,1.1,0.9,2,2,2s2-0.9,2-2V23c0-1.1-1.4-2-2.5-2h-2.7v-0.7c0-1.1-0.9-2-2-2h-2.5
							c0.3-0.1,0.6-0.2,0.8-0.3c0.9-0.7,1-1.9,0.4-2.8l-0.7-0.9c-0.3-0.4-0.5-1-0.1-1.6l0.9-1.5c0.6-0.9,0.3-2.1-0.6-2.7
							c-0.9-0.6-2.1-0.3-2.7,0.6l-0.9,1.5c-1.2,1.9-1.1,4.3,0.3,6.1l0.7,0.9c0.3,0.4,0.7,0.6,1.1,0.7h-3.2c-1.1,0-2,0.9-2,2v9.8
							H34.1v-3.9h17.7c1.1,0,2-0.9,2-2V2c0-1.1-0.9-2-2-2H11.2c-1.1,0-2,0.9-2,2v22.3c0,1.1,0.9,2,2,2h19v3.9H2c-1.1,0-2,0.9-2,2
							v9.2V78c0,1.1,0.3,2,1.4,2h7.1c1,0,1.9-0.8,2-1.8l2.5-34.9h56.7l2.5,34.9c0.1,1,0.9,1.8,2,1.8h7.4c1.1,0,2.5-0.9,2.5-2V41.3
							v-9.2C84,31,83.1,30.2,82,30.2L82,30.2z"/>
					</g>
				</g>
			</g>
		</g>
	</g>
</g>
</svg>
