<?xml version="1.0" encoding="utf-8"?>
<!-- Generator: Adobe Illustrator 22.1.0, SVG Export Plug-In . SVG Version: 6.00 Build 0)  -->
<svg version="1.1" id="Layer_1" xmlns="http://www.w3.org/2000/svg" xmlns:xlink="http://www.w3.org/1999/xlink" x="0px" y="0px"
	 viewBox="0 0 50 48.9" style="enable-background:new 0 0 50 48.9;" xml:space="preserve">
<g>
	<g>
		<path d="M15.6,6.8c-1.8,0.4-3.7,0.2-5.2,0.9c-0.4,1.1-0.4,1.5,0,2.6c2.5,0.4,5.7,0,8-0.7c0-0.5,0-0.9,0-1.4
			C17.4,7.7,15.5,7.8,15.6,6.8z"/>
		<path d="M15.6,12.7c-1.8,0.4-3.7,0.2-5.2,0.9c-0.4,1.1-0.4,1.5,0,2.6c2.5,0.4,5.7,0,8-0.7c0-0.5,0-0.9,0-1.4
			C17.4,13.6,15.5,13.7,15.6,12.7z"/>
		<path d="M40.6,10.8c-0.1-0.9,0.1-3.3,0-5c-1.3-2.4-5.1-0.7-7.5-1.4c0.6-1.1,0.2-1.6,0.2-3.1c-0.2-0.5-2.2-0.9-2.4-0.9
			c0.6,0,0.3-0.2,0.2-0.5c-0.2,0-0.5,0-0.7,0C30,1,28-0.4,27.6,0.9c-0.8,0.2-0.4-0.5-0.2-0.7c-0.4,0-0.9,0.1-0.9-0.2
			c-1.9,0-3.8,0-5.7,0c-0.5,0.7-2.4,0.3-3.5,0c-0.6,0-1.3,0-1.9,0c-0.7,0.5-2.6,0.5-4,0.9c0-0.4,0.8-0.1,0.9-0.5
			C5.8-0.1,1.2,4.5,0,10.6c0,0.7,0,1.4,0,2.1c0.8,0.2,0.2,1.1,0.2,1.7c0.6,4.4,4.7,7.8,9.2,8.7c-0.6,3.6-2,7.1-3.1,10.8
			C1.5,34,0.2,37.1,0,42.2c0,0.2,0,0.5,0,0.7c0.4,2.7,1.6,4.5,3.8,5.9c4.5,0,11.1,0.2,16,0c2.2-0.1,6.2-1.3,6.6-3.8
			c0.6-3.7,0.3-9.2-3.5-10.4c-2-0.6-3.6,0.3-5.9-0.2c1.2-3.6,2.2-7.6,3.3-11.3c3.5-0.5,8.1,0.1,11.6-0.5c0.9-0.6,0.3-2.5,0.5-3.8
			c2.4,0,4.9,0,7.3,0c1.3-1.4,0.1-4,0.7-5.9c3-0.5,8.2,1.1,9.7-0.9C48,9.9,43.8,11.4,40.6,10.8z M24.3,38.4
			c-0.1,3.7-0.4,4.8-0.9,6.8c-0.8-0.8-1.6-0.3-1.9,0.7c0.2-0.6-2.1-0.9-3.3-0.7c-1.1,0.2-0.5,0.4-1.4,0.2
			c-3.5-0.7-12.2,1.6-13.2-0.9c0-2.9-1.1-6.5,1.7-8C9.9,37.8,22.1,34.5,24.3,38.4z M14.6,34.7c-2.1-0.2-3.5-0.9-4.2-0.7
			c0.6-4.1,1.7-7.2,2.4-10.4c1.3,0,3.7-0.7,5.2-0.5C16.8,27,16,31.1,14.6,34.7z M30.2,20.8c-3.2,0.1-4.9-0.6-7.3-0.2
			c0.3-1.4-2.9,1.1-3.3-0.9c-0.8-0.2-0.3,1-1.2,0.7c0.7-0.6-1.3-0.8-1.2,0.2c-1.5-1.4-4.1-0.8-6.1,0c-0.3-0.1,0.1-0.3,0-0.7
			c-5.1-0.2-8.2-4.9-7.8-8.7C4.6,0.6,19.2,3.9,30,3.3C30.5,8.7,30.1,15,30.2,20.8z M38,17c-1.6,0.1-3.4-1-4-0.5
			c-1.2-1.2-0.9-6.1-0.9-8.7c2.4-0.1,2.4-0.8,5-0.5C37.8,9.7,38.7,14.1,38,17z"/>
	</g>
</g>
</svg>
