<?xml version="1.0" encoding="utf-8"?>
<!-- Generator: Adobe Illustrator 22.1.0, SVG Export Plug-In . SVG Version: 6.00 Build 0)  -->
<svg version="1.1" id="Layer_1" xmlns="http://www.w3.org/2000/svg" xmlns:xlink="http://www.w3.org/1999/xlink" x="0px" y="0px"
	 viewBox="0 0 55 56.4" style="enable-background:new 0 0 55 56.4;" xml:space="preserve">
<g>
	<g>
		<path d="M18.6,10.2c-0.1,0.9,0.9,0.6,0.7,1.5c-1.5,1.7,1.5,2.6,2.9,2.9c-0.2-0.9,1-0.2,1.2-0.7c0.3-1.9,0.4-3.6-0.5-4.8
			C21.3,8.9,19.7,9,18.6,10.2z"/>
		<path d="M33.1,9.4c-0.9,2.7,0.8,5.9,4.1,4.6c1-1.6,0.4-3.3,0-5.1C35.4,8.5,34.9,9.6,33.1,9.4z"/>
		<path d="M18.6,20.6c1,0.7,0.5,1.1,0.2,2.2c0.5,1.2,2,1.4,3.1,1.9c2.4-1,1.5-3.7,1.2-5.6C21.3,19,19.6,19.1,18.6,20.6z"/>
		<path d="M33.1,19.6c-0.5,1.3,0.7,2-0.2,3.1c0.6,1.2,2,1.5,3.4,1.9c-0.1-0.7,0.8-0.5,1.2-0.7C38.4,20.5,37.3,17.6,33.1,19.6z"/>
		<path d="M47.2,21.3c0.2-5.3,0.5-11.9,0.5-16.5c0,0.3-0.1,0.6-0.2,0.2c-0.2-2.3-1.5-2-1.9-3.6C44,1.2,42.7,1.6,41.6,0
			c-0.7,0-1.5,0-2.2,0c0.5,0.6-1.2,1.1-1.7,0.7c-0.2-0.1,1.6-0.5,0.5-0.7c-0.2,0-0.3,0-0.5,0c-0.6,1.2-2.6-0.4-3.1,1
			c-0.6-0.2-0.8-0.8-1.5-1c-0.1,0-0.2,0-0.2,0c-0.4,0.4-1.1,0.5-1.9,0.5c0-0.2,0-0.3,0-0.5c-1.1,0-2.3,0-3.4,0
			c-2.8,1.1-6.7-0.6-9.4,1.2c-0.6-0.6,0.6-0.3,0-1c-4.4-0.1-8.6,0-9.9,4.1C6.7,8.8,8.9,15.4,8,20.8c-4.6-0.3-7.4,3.7-8,7.3
			c0,0.3,0,0.6,0,1c0.7,3.1,1.9,4.7,4.1,6.5c0.3,4.9-0.3,12.7,0.2,17.7c0.9,1.1,2.1,1.7,2.9,2.9c0.4,0.1,1.4-0.3,1.5,0.2
			c1,0,1.9,0,2.9,0c0.3-0.5,1.3-0.4,1.7-0.7c0-0.6,0-1.1,0-1.7c1.4,0,1.8-1,2.2-1.9c7.4-0.3,16.1-0.2,25.4-0.2
			c-0.1,0.8,0.2,1.1,0.2,1.7c0.6,0.3,1.2,0.6,2.2,0.5c-0.3,0.3-0.3,1.1,0,1.5c1.4,0.6,4.2,0.7,5.8,0.2c0.4-0.5,0-1.6,0.2-1.7
			c0.7,0,1.2-0.3,1.7-0.5c0.4-5.6-0.2-12.1,0-18.4C57.7,32.6,55.7,20.1,47.2,21.3z M12.8,51.8c-2.3-0.2-3.6,0-5.3-0.7
			c-0.7-0.5,0.6-1.5-0.5-1.7c1.1,0-0.1-0.6,1.2-0.7c-1.2-3.9,0.1-10-1-15.5c-2.3-0.9-4.7-3-3.4-7c1.7-2.4,6.8-2.4,8.5,0
			C13.2,33.5,12.6,42.8,12.8,51.8z M14.8,49.6c0-0.6,0-1.1,0-1.7c2-0.5,4.1,1.2,5.1,0c0.3,0.8,0.1,0.2,0.5,1
			c0.4-0.4,1.8,0.2,1.7-0.7c0.7,1,2.9,0.9,4.1,0c0.2-0.5,0.4,0.3,0,0.2c3.8,0.7,10.1-0.7,14.3,0.2C33.3,50.5,24.4,49.1,14.8,49.6z
			 M40.4,45c-7.8,0.5-15.5,0.4-25.4,0.7c-0.1-3.5-0.4-6.4,0-10.2c2.6-0.2,4,0.8,6.3,0.2c0.3,0,0.2,0.4,0.2,0.7
			c0.6-0.9,1.5,0,2.4-0.5c-0.5,0.9,2.2,0.9,2.4,0c0.9,1,4.2,1,5.3-0.2c0.8,1.4,6.4,0.4,8.7,0.5C40.4,39.4,40.5,42.7,40.4,45z
			 M40.4,32.9c-8,0.3-17,1-25.4,0.2c0.3-4.4-0.1-9.5-4.1-10.9c0-5.6,0-11.1,0-16.7c0.5-0.9,1.5-1.2,1.9-2.2c4.6,0.4,6.8,1.1,9.7,0.2
			c-0.1,0.3-0.3,0.5-0.7,0.5c0.9,0.1,1.1-0.2,2.2,0.5c0.7,0,0.1-0.9,1.5-0.7c-0.1,0.3-0.5,0.2-0.5,0.5c0.5-0.1,1.8,0.3,2.2-0.7
			c0.3,0,0.2,0.4,0.2,0.7c4.5,0.7,8.4-1.1,14.5-0.2c0.8,0.1,1.4,0.5,2.2,1c0.7,7.2,0.3,11.2,0.5,16.7C40.6,23.6,40.2,28,40.4,32.9z
			 M49.1,33.6c0.1,1.3-0.8,2.8-0.2,4.4c-0.1,0.3-0.3,0.5-0.7,0.5c1,0.4-0.2,1.6,0.7,1.9c-0.9-0.1-0.8,1-1,1.9
			c0.4,0.1,0.5-0.2,0.5-0.5c0.3,1.9-1.4,4.1,0.5,6.8c-0.1,0.4-0.3-0.1-0.7,0c0.4,0.8-0.1,1.1,0,2.2c-1.7,0.2-2.2,0-4.4,0
			c-0.5-5.7,0.5-12-0.2-17.4c-0.6-4.1-0.3-9.3,3.9-9.7C53.3,23.1,55.4,31.6,49.1,33.6z"/>
	</g>
</g>
</svg>
