<?xml version="1.0" encoding="utf-8"?>
<!-- Generator: Adobe Illustrator 22.1.0, SVG Export Plug-In . SVG Version: 6.00 Build 0)  -->
<svg version="1.1" id="Layer_1" xmlns="http://www.w3.org/2000/svg" xmlns:xlink="http://www.w3.org/1999/xlink" x="0px" y="0px"
	 viewBox="0 0 50 55" style="enable-background:new 0 0 50 55;" xml:space="preserve">
<g>
	<g>
		<path d="M49.7,3.8c-5.6-2.1-9.5-3-16.3-3.6c-0.3,1.1,1.5-0.5,1.8,0.5c-1.5,0-2.2,0.4-2.8-0.8c-0.9,0-1.7,0-2.5,0
			c-1.5,0.6-1.9,1-3.6,0.5c-1.6,3.7-1.3,9.5,0.5,11.7c-0.3,0-0.6-0.5-0.8,0c1.1,1.4,3.8,0.2,5.9,1c-0.1,8.3,0.7,20.2,0.5,29.8
			c-0.1,3.6-0.7,7.3,0,9.2c0.8,1.9,4.2,3.5,6.6,2.5c3-1.2,2.3-4.7,2.3-7.4c-0.2-10.3,0.6-23,0-35.4c3.1-0.1,5.6,0.2,8.2,0
			C50.3,10.2,50,6,49.7,3.8z M35.4,50.4c0-0.7,0.2-0.3,0.5-0.3c-0.8-0.9-0.1-1.8-0.5-3.1c0.8,0.6-0.1-0.4,1-0.5
			c-1.2-1.3,0.3-1.8-1-3.1c0.3,0.3,0.4,0.1,0.8,0c-0.6-2.1,0.7-4.7-1-6.1c0.9,0.2,1-5.7,0.8-7.4c-0.6-3.6-0.4-12,0-17.6
			c1.1,0.5,1.8,0,2.8,0.3c0.5,11.4,0.4,22.7,0.5,37.9C38.3,52.3,36.1,52.5,35.4,50.4z M47.6,9.9c-7.7-1.1-9.3-1.4-18.3-0.8
			c0-1.6-0.2-3.6,0-5.1c6-0.7,12.5-0.6,18.3,1.3C47.6,6.9,47.6,8.4,47.6,9.9z"/>
		<path d="M13.5,1.8C9.7,0.9,3.9,0,2,2.3c1-0.1,0.1,3.1,0.3,3.8C1.7,5.5,0.9,7.8,2,8.9c-0.9-1-0.7,1.5,0,2.3C1.2,11,1.5,11,1,11.5
			c0.5,3.7-1,5.7,0.3,9.2c-0.2-0.2-0.7-0.4-0.8,0c-0.3,1.7,0.1,4.9-0.5,6.6c0,0.3,0,0.7,0,1c2.2,1.3,2.3,4,3.8,6.9
			c0,0,0.8,0.8,0.8,0.8c-0.1,1-1.8,1.9-2,2.8c-0.5,1.8-0.3,5.8-0.3,8.1c0,0.4,0.5,1.5,0.5,1.8c0,0.3-0.6,0.2-0.5,0.5
			c0.5,3.8,3.3,6.2,6.9,5.9c5.5-0.5,4.8-5.6,4.6-10.7c-0.1-3.3,0.9-6.1-2-7.9c1-3.3,2.1-6.4,4.3-8.4C15.2,20.8,14.6,10.3,13.5,1.8z
			 M9.2,51.4c0.6-0.8-1.7-0.3-1.8-0.5c-0.3-0.2-0.3-0.6-0.8-0.5c-0.5-5.2-2.4-9.9,1.8-13c0.7,0.6,2,0.6,2.5,1.3
			C11.4,43.3,13.4,49.8,9.2,51.4z M9.2,34.6c-0.1-0.2-0.2-0.5-0.5-0.5c-0.6,0.1,0.9,0.5-0.3,0.8c-0.8,0,0-1.5-1.5-1.3
			c0.6-1.5,0.2-4.6-2.5-5.3c0.4-0.2,0.9-0.9-0.3-0.8C4.8,17.4,4.9,12,5.9,4.1c2.4,0.1,3.9-0.5,5.6-0.5c1,8.7,1.1,14.1,2.3,23.4
			C11.7,29,10.6,32,9.2,34.6z"/>
	</g>
</g>
</svg>
