<?xml version="1.0" encoding="UTF-8" standalone="no"?>
<svg width="102px" height="61px" viewBox="0 0 102 61" version="1.1" xmlns="http://www.w3.org/2000/svg" xmlns:xlink="http://www.w3.org/1999/xlink">
    <!-- Generator: Sketch 41.2 (35397) - http://www.bohemiancoding.com/sketch -->
    <title>Icon 3</title>
    <desc>Created with Sketch.</desc>
    <defs>
        <polygon id="path-1" points="32.3356481 0.26282716 0 0.26282716 0 60.0060765 32.3356481 60.0060765 32.3356481 0.26282716"></polygon>
        <polygon id="path-3" points="32.3518395 30.1344519 32.3518395 0.26282716 0.0158148148 0.26282716 0.0158148148 60.0060765 32.3518395 60.0060765 32.3518395 30.1344519"></polygon>
    </defs>
    <g id="Page-1" stroke="none" stroke-width="1" fill="none" fill-rule="evenodd">
        <g id="home-step-1" transform="translate(-727.000000, -1216.000000)">
            <g id="section-steps" transform="translate(0.000000, 799.000000)">
                <g id="steps" transform="translate(106.000000, 356.000000)">
                    <g id="col-3" transform="translate(550.000000, 0.000000)">
                        <g id="Icon-3" transform="translate(71.000000, 61.000000)">
                            <g id="Group-3" transform="translate(0.000000, 0.490560)">
                                <mask id="mask-2" fill="white">
                                    <use xlink:href="#path-1"></use>
                                </mask>
                                <g id="Clip-2"></g>
                                <path d="M28.9467593,36.3312988 L3.38851235,36.3312988 L3.38851235,3.65111358 L7.24958642,3.65111358 C8.2933642,3.65111358 9.14209259,4.49984198 9.14209259,5.54361975 L9.14209259,26.8778049 C9.14209259,29.2507802 11.0722531,31.1801877 13.4444753,31.1801877 L27.0550062,31.1801877 C28.0980309,31.1801877 28.9467593,32.028916 28.9467593,33.0719407 L28.9467593,36.3312988 Z M27.0550062,27.7912988 L13.4444753,27.7912988 C12.9406605,27.7912988 12.5309815,27.3816198 12.5309815,26.8778049 L12.5309815,5.54361975 C12.5309815,2.63143457 10.1625247,0.262224691 7.24958642,0.262224691 L1.6940679,0.262224691 C0.758734568,0.262224691 -0.00037654321,1.0213358 -0.00037654321,1.95666914 L-0.00037654321,58.3116321 C-0.00037654321,59.2477185 0.758734568,60.0060765 1.6940679,60.0060765 C2.63015432,60.0060765 3.38851235,59.2477185 3.38851235,58.3116321 L3.38851235,39.7201877 L25.3598086,39.7201877 L25.3605617,58.3116321 C25.3605617,59.2484716 26.1196728,60.0060765 27.0550062,60.0060765 C27.9910926,60.0060765 28.7494506,59.2477185 28.7494506,58.3116321 L28.7486975,39.7201877 L30.6412037,39.7201877 C31.576537,39.7201877 32.3356481,38.9610765 32.3356481,38.0257432 L32.3356481,33.0719407 C32.3356481,30.1605086 29.9664383,27.7912988 27.0550062,27.7912988 L27.0550062,27.7912988 Z" id="Fill-1" fill="#C5AF7A" mask="url(#mask-2)"></path>
                            </g>
                            <g id="Group-6" transform="translate(69.283951, 0.490560)">
                                <mask id="mask-4" fill="white">
                                    <use xlink:href="#path-3"></use>
                                </mask>
                                <g id="Clip-5"></g>
                                <path d="M28.9629506,36.3312988 L3.4047037,36.3312988 L3.4047037,33.0719407 C3.4047037,32.028916 4.2534321,31.1801877 5.29645679,31.1801877 L18.9069877,31.1801877 C21.279963,31.1801877 23.2093704,29.2507802 23.2093704,26.8778049 L23.2093704,5.54361975 C23.2093704,4.49984198 24.0580988,3.65111358 25.1018765,3.65111358 L28.9629506,3.65111358 L28.9629506,36.3312988 Z M30.6573951,0.262224691 L25.1018765,0.262224691 C22.1896914,0.262224691 19.8204815,2.63143457 19.8204815,5.54361975 L19.8204815,26.8778049 C19.8204815,27.3816198 19.4108025,27.7912988 18.9069877,27.7912988 L5.29645679,27.7912988 C2.38502469,27.7912988 0.0158148148,30.1605086 0.0158148148,33.0719407 L0.0158148148,38.0257432 C0.0158148148,38.9610765 0.774925926,39.7201877 1.71025926,39.7201877 L3.60276543,39.7201877 L3.60201235,58.3116321 C3.60201235,59.2477185 4.36037037,60.0060765 5.29645679,60.0060765 C6.23179012,60.0060765 6.99090123,59.2477185 6.99090123,58.3116321 L6.99165432,39.7201877 L28.9629506,39.7201877 L28.9629506,58.3116321 C28.9629506,59.2477185 29.7220617,60.0060765 30.6573951,60.0060765 C31.5927284,60.0060765 32.3518395,59.2477185 32.3518395,58.3116321 L32.3518395,1.95666914 C32.3518395,1.0213358 31.5927284,0.262224691 30.6573951,0.262224691 L30.6573951,0.262224691 Z" id="Fill-4" fill="#C5AF7A" mask="url(#mask-4)"></path>
                            </g>
                            <path d="M50.6032654,37.3082025 L41.3756975,24.2075111 L59.8308333,24.2075111 L50.6032654,37.3082025 Z M26.2130556,17.6601778 C26.2130556,16.2398568 27.3682901,15.0846222 28.7886111,15.0846222 L70.1255247,15.0846222 C71.5450926,15.0846222 72.7010802,16.2398568 72.7010802,17.6601778 L72.7010802,20.8186222 L38.077179,20.8186222 L38.0749198,20.8186222 L26.2130556,20.8186222 L26.2130556,17.6601778 Z M76.0899691,24.2075111 L76.0899691,17.6601778 C76.0899691,14.3714494 73.4142531,11.6957333 70.1255247,11.6957333 L68.5131667,11.6957333 C69.4688333,10.8176346 70.0728086,9.56148642 70.0728086,8.16375802 L70.0728086,5.03694321 C70.0728086,4.10160988 69.3144506,3.34249877 68.3783642,3.34249877 C67.4430309,3.34249877 66.6839198,4.10160988 66.6839198,5.03694321 L66.6839198,8.16375802 C66.6839198,8.94320247 66.0505741,9.57579506 65.2711296,9.57579506 C64.4924383,9.57579506 63.8590926,8.94320247 63.8590926,8.16375802 L63.8590926,5.03694321 C63.8590926,4.10160988 63.1007346,3.34249877 62.1646481,3.34249877 C61.2293148,3.34249877 60.4702037,4.10160988 60.4702037,5.03694321 L60.4702037,8.16375802 C60.4702037,9.56148642 61.074179,10.8176346 62.0298457,11.6957333 L36.883537,11.6957333 C37.8392037,10.8176346 38.443179,9.56148642 38.443179,8.16375802 L38.443179,5.03694321 C38.443179,4.10160988 37.684821,3.34249877 36.7487346,3.34249877 C35.8134012,3.34249877 35.0542901,4.10160988 35.0542901,5.03694321 L35.0542901,8.16375802 C35.0542901,8.94320247 34.4209444,9.57579506 33.6415,9.57579506 C32.8628086,9.57579506 32.229463,8.94320247 32.229463,8.16375802 L32.229463,5.03694321 C32.229463,4.10160988 31.4711049,3.34249877 30.5350185,3.34249877 C29.5996852,3.34249877 28.8405741,4.10160988 28.8405741,5.03694321 L28.8405741,8.16375802 C28.8405741,9.56148642 29.4445494,10.8176346 30.400216,11.6957333 L28.7886111,11.6957333 C25.4998827,11.6957333 22.8241667,14.3714494 22.8241667,17.6601778 L22.8241667,24.2075111 L37.2299568,24.2075111 L48.5300185,40.2512642 L35.9820926,58.0670296 C35.4436358,58.8329185 35.6266358,59.8894988 36.3917716,60.4287086 C36.6884877,60.6373136 37.0288827,60.7374741 37.3662654,60.7374741 C37.8986975,60.7374741 38.4228457,60.4874494 38.7526975,60.0190296 L50.6032654,43.1943259 L62.1405494,59.5747086 C62.4711543,60.0431284 62.9953025,60.2931531 63.5277346,60.2931531 C63.8643642,60.2931531 64.2047593,60.1929926 64.5022284,59.9843877 C65.2666111,59.4451778 65.4503642,58.3885975 64.9119074,57.6227086 L52.6765123,40.2512642 L63.9765741,24.2075111 L76.0899691,24.2075111 Z" id="Fill-7" fill="#C5AF7A"></path>
                        </g>
                    </g>
                </g>
            </g>
        </g>
    </g>
</svg>
