<svg xmlns="http://www.w3.org/2000/svg" xmlns:xlink="http://www.w3.org/1999/xlink" version="1.1" x="0px" y="0px" viewBox="0 0 58 72.5" enable-background="new 0 0 58 58" xml:space="preserve"><g><path d="M56,42V32h-4v-2h-6v2h-2v-4h-2.93c0.02-0.08,0.05-0.16,0.07-0.24c0.19-0.97-0.12-1.95-0.85-2.61   c-0.8-0.74-1.32-1.55-1.53-2.39L38.58,22H37v-0.59l2.71-2.71c0.39-0.39,0.39-1.02,0-1.41s-1.02-0.39-1.41,0L37,18.59V16v-0.14   c1.72-0.45,3-2,3-3.86v-2h-3V7h-5v5c0,1.86,1.28,3.41,3,3.86V16v6h-1.58l-0.19,0.76c-0.21,0.84-0.72,1.64-1.53,2.39   c-0.72,0.67-1.04,1.64-0.85,2.61c0.02,0.08,0.05,0.16,0.07,0.24H30V14h-5c1.65,0,3-1.35,3-3s-1.35-3-3-3h-1V7h-7v7h-1V0H0v14v2v3v9   v2v12v2v14h14h2h1h10h1h2h12h2h14V42H56z M54,34v8h-2v-8H54z M50,32v10h-2V32H50z M46,34v8h-2v-8H46z M38,12   c0,0.74-0.4,1.39-1,1.73V12H38z M34,12V9h1v1v3.73C34.4,13.39,34,12.74,34,12z M32.82,27.37c-0.08-0.4,0.14-0.66,0.24-0.75   c0.87-0.8,1.49-1.68,1.87-2.61h2.15c0.38,0.94,1,1.81,1.87,2.61c0.1,0.09,0.32,0.35,0.24,0.75C39.11,27.73,38.74,28,38.32,28h-4.64   C33.26,28,32.89,27.73,32.82,27.37z M33.68,30h4.64H42v2v10H30V30H33.68z M16,30h12v12H16V30z M25,10c0.55,0,1,0.45,1,1   s-0.45,1-1,1h-1v-2H25z M19,9h3v5h-3V9z M17,16h7h4v12H16V16H17z M2,2h12v12H2V2z M2,16h12v12h-3v-9H8H6H5H3H2V16z M6,28H5v-7h1V28   z M9,28H8v-7h1V28z M2,21h1v7H2V21z M2,30h1h2h1h2h3h3v12H2V30z M14,56H2V44h12V56z M19,56v-1h6v1H19z M19,52h6v1h-6V52z M25,50h-6   v-1h6V50z M28,56h-1v-1v-2v-1v-2v-3H17v3v2v1v2v1h-1V44h12V56z M42,56H30V44h12V56z M56,56H44V44h2h2h2h2h4V56z"/><path d="M20.46,6.08c0.12,0.05,0.25,0.08,0.38,0.08c0.39,0,0.76-0.23,0.92-0.62c0.21-0.5-0.02-1.06-0.5-1.29   c1.28-0.55,1.48-1.37,1.48-1.81c0-0.45-0.2-1.28-1.52-1.83c-0.51-0.21-1.1,0.03-1.31,0.54c-0.21,0.5,0.02,1.06,0.5,1.29   c-1.28,0.55-1.48,1.37-1.48,1.81C18.94,4.7,19.14,5.53,20.46,6.08z"/></g><text x="0" y="73" fill="#000000" font-size="5px" font-weight="bold" font-family="'Helvetica Neue', Helvetica, Arial-Unicode, Arial, Sans-serif">Created by Ben Davis</text><text x="0" y="78" fill="#000000" font-size="5px" font-weight="bold" font-family="'Helvetica Neue', Helvetica, Arial-Unicode, Arial, Sans-serif">from the Noun Project</text></svg>
