<svg xmlns="http://www.w3.org/2000/svg" xmlns:xlink="http://www.w3.org/1999/xlink" xml:space="preserve" style="shape-rendering:geometricPrecision;text-rendering:geometricPrecision;image-rendering:optimizeQuality;" viewBox="0 0 100 125" x="0px" y="0px" fill-rule="evenodd" clip-rule="evenodd"><defs><style type="text/css">

    .fil0 {fill:black;fill-rule:nonzero}

  </style></defs><g><path class="fil0" d="M34.8215 56.9709l32.4652 0c0.459452,0 0.879928,0.190159 1.18465,0.492524l0.00118111 0.00118111c0.302365,0.304727 0.492524,0.725203 0.492524,1.18465l0 9.65204c0,0.459452 -0.190159,0.879928 -0.492524,1.18465l-0.00118111 0.00118111c-0.304727,0.302365 -0.725203,0.492524 -1.18465,0.492524l-32.4652 0c-0.459452,0 -0.879928,-0.190159 -1.18465,-0.492524l-0.00118111 -0.00118111c-0.302365,-0.304727 -0.492524,-0.725203 -0.492524,-1.18465l0 -9.65204c0,-0.459452 0.190159,-0.879928 0.492524,-1.18465l0.00118111 -0.00118111c0.304727,-0.302365 0.725203,-0.492524 1.18465,-0.492524zm26.0282 15.8222l-1.86025 0 4.49531 18.4501 0.646068 0 -3.28113 -18.4501zm0.911818 -0.00590556l3.34845 18.8293 0.0933078 0.526776 -0.536225 0 -1.53426 0 -0.351971 0 -0.0838589 -0.344885 -4.63114 -19.0112 -15.5163 0 -4.65122 19.0927 -0.0838589 0.344885 -0.351971 0 -1.53545 0 -0.536225 0 0.0933078 -0.526776 3.36381 -18.9108 -5.2902 0c-0.740557,0 -1.41497,-0.304727 -1.90277,-0.791345l-0.00118111 -0.00118111c-0.486618,-0.487799 -0.791345,-1.16221 -0.791345,-1.90277l0 -27.9746c0,-0.740557 0.304727,-1.41497 0.791345,-1.90277l0.00118111 -0.00118111c0.0732289,-0.0732289 0.151182,-0.141733 0.23386,-0.206695l3.49609 -3.43822 0.314176 -0.129922 11.4615 0 0.402759 0.251577c0.124017,0.251577 0.274018,0.48898 0.441736,0.70158l0 0.00118111c0.133466,0.17008 0.281105,0.328349 0.437011,0.470082l4.20594 0c0.155907,-0.141733 0.303546,-0.300002 0.437011,-0.470082l0 -0.00118111c0.167718,-0.2126 0.317719,-0.450004 0.441736,-0.70158l0.402759 -0.251577 11.4627 0 0.291735 0.108662 3.67326 3.13703c0.278742,0.133466 0.530319,0.314176 0.746463,0.529138l0.00118111 0.00118111c0.486618,0.487799 0.791345,1.16221 0.791345,1.90277l0 27.9746c0,0.740557 -0.304727,1.41497 -0.791345,1.90277l-0.00118111 0.00118111c-0.487799,0.486618 -1.16221,0.791345 -1.90277,0.791345l-6.43942 0zm-20.1557 0.0874023l-1.86025 0 -3.28231 18.4501 0.647249 0 4.49531 -18.4501zm-9.14889 -32.1735c-0.0578745,0.0460634 -0.114568,0.0933078 -0.167718,0.146458l-0.00118111 0.00118111c-0.322443,0.324806 -0.525595,0.77599 -0.525595,1.26851l0 27.9746c0,0.492524 0.203151,0.943708 0.525595,1.26851l0.00118111 0.00118111c0.324806,0.322443 0.77599,0.525595 1.26851,0.525595l34.6432 0c0.492524,0 0.943708,-0.203151 1.26851,-0.525595l0.00118111 -0.00118111c0.322443,-0.324806 0.525595,-0.77599 0.525595,-1.26851l0 -27.9746c0,-0.492524 -0.203151,-0.943708 -0.525595,-1.26851l-0.00118111 -0.00118111c-0.155907,-0.154726 -0.342522,-0.283467 -0.546855,-0.374412l-0.00472445 -0.00118111 -0.00590556 -0.00354333 -0.0141733 -0.00472445 -0.00708667 -0.00354333 -0.0118111 -0.00472445 -0.00118111 0 -0.00944889 -0.00472445 -0.01063 -0.00354333 -0.01063 -0.00472445 -0.00944889 -0.00354333 -0.00236222 -0.00118111 -0.01063 -0.00354333 -0.00826778 -0.00236222 -0.00354333 -0.00236222 -0.01063 -0.00354333 -0.00590556 -0.00118111 -0.00472445 -0.00236222 -0.0118111 -0.00472445 -0.00472445 -0.00118111 -0.00708667 -0.00236222 -0.01063 -0.00354333 -0.00354333 0 -0.00826778 -0.00354333 -0.01063 -0.00354333 -0.00118111 0 -0.01063 -0.00354333 -0.01063 -0.00354333 -0.00118111 0 -0.01063 -0.00354333 -0.00944889 -0.00236222 -0.00236222 -0.00118111 -0.0118111 -0.00236222 -0.00708667 -0.00236222 -0.00472445 -0.00118111 -0.01063 -0.00354333 -0.00708667 -0.00118111 -0.00472445 -0.00118111 -0.0118111 -0.00354333 -0.00472445 0 -0.00708667 -0.00236222 -0.0118111 -0.00236222 -0.00236222 -0.00118111 -0.00354333 -0.00118111 -0.00472445 -0.00118111 -0.0118111 -0.00236222 -0.00118111 0 -0.01063 -0.00236222 -0.00354333 -0.00118111 -0.00826778 -0.00118111 -0.00236222 -0.00118111 -0.01063 -0.00236222 -0.00826778 -0.00118111 -0.00236222 -0.00118111 -0.01063 -0.00118111 -0.00944889 -0.00118111 -0.00236222 -0.00118111 -0.0200789 -0.00236222 -0.00118111 -0.00118111 -0.02126 -0.00236222 -0.00118111 -0.00118111 -0.0200789 -0.00236222 -0.00236222 -0.00118111 -0.0118111 -0.00118111 -0.00826778 -0.00118111 -0.00354333 -0.00118111 -0.01063 -0.00118111 -0.00826778 0 -0.00354333 -0.00118111 -0.0118111 -0.00118111 -0.00708667 0 -0.00472445 -0.00118111 -0.01063 -0.00118111 -0.00826778 0 -0.00354333 -0.00118111 -0.00708667 0 -0.00472445 0 -0.00708667 -0.00118111 -0.00472445 0 -0.0118111 -0.00118111 -0.00590556 0 -0.00590556 0 -0.0118111 -0.00118111 -0.00472445 0 -0.00708667 0 -0.0129922 -0.00118111 -0.00354333 0 -0.00826778 0 -0.0118111 0 -0.00236222 0 -0.00944889 -0.00118111 -0.0118111 0 -0.00118111 0 -0.0118111 0 -0.0118111 0 -34.642 0 -0.00118111 0 -0.0177167 0 -0.00590556 0 -0.0129922 0 -0.00944889 0.00118111 -0.00944889 0 -0.0129922 0 -0.00708667 0 -0.0165356 0.00118111 -0.00236222 0 -0.0188978 0.00118111 -0.00118111 0 -0.0177167 0.00118111 -0.00472445 0 -0.0129922 0.00118111 -0.00944889 0.00118111 -0.00944889 0.00118111 -0.0141733 0.00118111 -0.00472445 0 -0.0177167 0.00236222 -0.00118111 0 -0.0188978 0.00236222 -0.00236222 0 -0.0153545 0.00236222 -0.00708667 0.00118111 -0.0118111 0.00118111 -0.00944889 0.00236222 -0.0224411 0.00354333 -0.00472445 0 -0.0177167 0.00354333 -0.0177167 0.00236222 -0.00472445 0.00118111 -0.0141733 0.00236222 -0.00708667 0.00236222 -0.01063 0.00236222 -0.0118111 0.00236222 -0.00590556 0.00118111 -0.0153545 0.00354333 -0.00236222 0 -0.0177167 0.00472445 -0.00118111 0.00118111 -0.02126 0.00472445 -0.0129922 0.00236222 -0.00944889 0.00354333 -0.00708667 0.00118111 -0.0141733 0.00472445 -0.00354333 0 -0.0177167 0.00590556 -0.0165356 0.00472445 -0.00472445 0.00236222 -0.0129922 0.00354333 -0.0283467 0.00944889 -0.00472445 0.00118111 -0.0354333 0.0129922 -0.00118111 0.00118111 -0.0165356 0.00472445 -0.00472445 0.00236222 -0.0129922 0.00472445 -0.00708667 0.00354333 -0.01063 0.00354333 -0.00944889 0.00472445 -0.00708667 0.00236222 -0.0129922 0.00590556 -0.00472445 0.00236222 -0.0153545 0.00590556 -0.00236222 0.00118111 -0.0165356 0.00708667 -0.00118111 0.00118111 -0.0165356 0.00708667 -0.00354333 0.00236222 -0.0129922 0.00590556 -0.00708667 0.00354333 -0.00944889 0.00472445 -0.00944889 0.00472445 -0.00826778 0.00354333 -0.0118111 0.00590556 -0.00472445 0.00236222 -0.0141733 0.00826778 -0.00236222 0.00118111 -0.0165356 0.00826778 -0.0153545 0.00944889 -0.00354333 0.00118111 -0.0129922 0.00826778 -0.00590556 0.00236222 -0.01063 0.00590556 -0.00826778 0.00472445 -0.00708667 0.00472445 -0.0118111 0.00708667 -0.00472445 0.00354333 -0.03189 0.0188978 -0.0153545 0.01063 -0.00354333 0.00118111 -0.0118111 0.00826778 -0.00590556 0.00354333 -0.00944889 0.00708667 -0.00826778 0.00590556 -0.00708667 0.00472445 -0.01063 0.00708667 -0.00354333 0.00354333 -0.0141733 0.00944889 -0.00118111 0.00118111 -0.0141733 0.01063 -0.00236222 0.00118111 -0.0129922 0.01063 -0.00354333 0.00236222 -0.01063 0.00826778zm14.4344 -3.36262l-11.0103 0 -2.11891 2.08348 33.905 0 -2.439 -2.08348 -11.0292 0c-0.121655,0.214962 -0.258663,0.419295 -0.407484,0.608273 -0.205513,0.262207 -0.441736,0.504335 -0.695675,0.71221l-0.284648 0.103938 -4.53193 0 -0.284648 -0.103938c-0.253939,-0.207876 -0.490161,-0.450004 -0.695675,-0.71221 -0.14882,-0.188978 -0.285829,-0.39331 -0.407484,-0.608273zm-2.06576 24.7218l12.4595 0 0.450004 0 0 0.450004 0 1.92994 0 0.450004 -0.450004 0 -12.4595 0 -0.450004 0 0 -0.450004 0 -1.92994 0 -0.450004 0.450004 0zm12.0095 0.900007l-11.5595 0 0 1.02993 11.5595 0 0 -1.02993zm9.14771 -11.8206l1.85789 2.69057c0.0307089,-0.08504 0.0484256,-0.175986 0.0484256,-0.270475l0 -9.65204c0,-0.2126 -0.0874023,-0.409846 -0.226773,-0.550398l-0.00118111 -0.00118111c-0.140552,-0.139371 -0.337798,-0.226773 -0.550398,-0.226773l-1.12796 0 0 8.0103zm1.11733 3.19845l-1.80238 -2.60908 -28.512 0 -2.20632 2.60671 0.0661423 0.00236222 32.4546 0zm-33.207 -0.581107l2.23466 -2.64097 0 -7.98668 -1.4823 0c-0.2126,0 -0.409846,0.0874023 -0.550398,0.226773l-0.00118111 0.00118111c-0.139371,0.140552 -0.226773,0.337798 -0.226773,0.550398l0 9.65204c0,0.0673234 0.00944889,0.133466 0.0259845,0.197246zm3.13467 -10.6276l0 7.69967 28.0549 0 0 -7.69967 -28.0549 0zm-2.3823 -0.900007l1.4823 0 0.450004 0 28.955 0 0.450004 0 1.12796 0c0.459452,0 0.879928,0.190159 1.18465,0.492524l0.00118111 0.00118111c0.302365,0.304727 0.492524,0.725203 0.492524,1.18465l0 9.65204c0,0.459452 -0.190159,0.879928 -0.492524,1.18465l-0.00118111 0.00118111c-0.304727,0.302365 -0.725203,0.492524 -1.18465,0.492524l-32.4652 0c-0.459452,0 -0.879928,-0.190159 -1.18465,-0.492524l-0.00118111 -0.00118111c-0.302365,-0.304727 -0.492524,-0.725203 -0.492524,-1.18465l0 -9.65204c0,-0.459452 0.190159,-0.879928 0.492524,-1.18465l0.00118111 -0.00118111c0.304727,-0.302365 0.725203,-0.492524 1.18465,-0.492524zm32.6412 15.6415l-32.4652 0c-0.2126,0 -0.409846,0.0874023 -0.550398,0.226773l-0.00118111 0.00118111c-0.13819,0.140552 -0.226773,0.336617 -0.226773,0.550398l0 9.65204c0,0.2126 0.0874023,0.409846 0.226773,0.550398l0.00118111 0.00118111c0.140552,0.139371 0.337798,0.226773 0.550398,0.226773l32.4652 0c0.2126,0 0.409846,-0.0874023 0.550398,-0.226773l0.00118111 -0.00118111c0.139371,-0.140552 0.226773,-0.337798 0.226773,-0.550398l0 -9.65204c0,-0.213781 -0.0885834,-0.409846 -0.226773,-0.550398l-0.00118111 -0.00118111c-0.140552,-0.139371 -0.337798,-0.226773 -0.550398,-0.226773z"/><path class="fil0" d="M52.7591 23.6423c0.617721,0.220868 1.00158,0.569296 1.01457,1.00276l0.00708667 0.0803156c0,0.07441 -0.0177167,0.142915 -0.0496067,0.204332l-0.00472445 0.00944889 -0.0188978 0.0354333 -0.00590556 0.0141733 -0.00354333 0.00590556 -0.00944889 0.0188978c-0.513784,1.03111 -0.812605,2.04805 -0.832684,3.05672 -0.0200789,1.02284 0.24449,2.05986 0.851582,3.12876 1.22718,1.54371 1.20001,2.62089 1.18229,3.30003l0 0.00118111 0.00118111 0 -0.00236222 0.0295278 -0.00236222 0.151182 0.00118111 0 0 0.00826778c-0.00118111,0.793707 -0.171261,1.54844 -0.46772,2.2134 -0.311813,0.695675 -0.768904,1.3004 -1.32403,1.75631l0.00118111 0.00118111c-0.0838589,0.0685045 -0.185435,0.102757 -0.285829,0.101576l0 0.00118111 -4.53193 0c-0.120473,0 -0.230317,-0.0472445 -0.310632,-0.125198 -0.543311,-0.453547 -0.990953,-1.05001 -1.29804,-1.73505 -0.29764,-0.667328 -0.46772,-1.42442 -0.46772,-2.22167 0,-0.798431 0.194883,-1.50474 0.503154,-2.1449 0.295278,-0.611816 0.698037,-1.16576 1.13623,-1.68663 0.473626,-0.731108 0.713391,-1.59804 0.713391,-2.52994l-0.00118111 0c0,-0.9567 -0.252758,-1.98663 -0.759455,-3.02246l0.0389767 -0.0188978 0 -0.00118111 -0.0401578 0.0200789c-0.0153545,-0.03189 -0.0271656,-0.06378 -0.0342522,-0.0968512 -0.13819,-0.158269 -0.213781,-0.337798 -0.213781,-0.532681 0,-0.459452 0.416932,-0.827959 1.08898,-1.05001 0.179529,-0.0590556 0.38268,-0.111024 0.602367,-0.153545 -1.97954,-5.40949 -5.62327,-9.95559 -12.2966,-10.9371 7.53904,0.12756 11.4521,4.76224 13.2225,10.8261l0.249215 -0.0118111c0.0838589,-0.706305 0.175986,-1.41733 0.281105,-2.13309 -0.693313,-5.08469 -3.04372,-9.69929 -8.55834,-12.2328 5.27012,1.63938 7.99731,5.05043 9.07921,9.23866 0.842133,-4.11854 2.28781,-8.38707 5.13547,-12.7442 -2.76498,7.30163 -3.80082,12.2588 -4.58153,16.6879 0.00944889,0.25512 0.0165356,0.511421 0.0177167,0.768904 1.72442,-4.3772 6.1217,-7.56266 12.9202,-9.67803 -6.04375,2.77797 -10.069,6.22682 -11.9469,10.3938zm-0.538587 2.19923l-0.00118111 0.00118111 0.00826778 0.0354333c-0.462996,0.107481 -1.02757,0.171261 -1.62993,0.171261 -0.546855,0 -1.063,-0.0543311 -1.50474,-0.145277l-0.0791345 -0.0165356c0.292916,0.831503 0.440555,1.65119 0.440555,2.43191l-0.00118111 0c0.00118111,1.10198 -0.28701,2.13545 -0.857487,3.0142l-0.0507878 0.0732289 -0.00118111 -0.00118111c-0.399216,0.474807 -0.767723,0.974417 -1.02993,1.52009 -0.251577,0.523232 -0.411027,1.09961 -0.411027,1.75513 0,0.670871 0.140552,1.30277 0.387405,1.85553 0.232679,0.518508 0.558666,0.973236 0.951976,1.32639l4.20594 0c0.39331,-0.353152 0.719297,-0.80788 0.951976,-1.32639 0.24449,-0.548036 0.385042,-1.17521 0.387405,-1.84017l0 -0.0153545 0 -0.00826778 0.00118111 0 0.00354333 -0.160631 -0.00118111 -0.0354333 0.00118111 0c0.0141733,-0.55276 0.0366145,-1.43033 -0.987409,-2.71892 -0.0248033,-0.0259845 -0.0460634,-0.0555122 -0.0649611,-0.0874023l0.390948 -0.224411 -0.389767 0.22323c-0.70158,-1.22481 -1.00631,-2.42364 -0.982685,-3.61538 0.0141733,-0.740557 0.157088,-1.47521 0.407484,-2.20986l-0.137009 0.0342522 -0.00826778 -0.0366145zm0.485437 -1.08662c0.0354333,-0.0224411 0.0685045,-0.0448822 0.0933078,-0.0685045l-0.00118111 -0.00118111 0.0507878 -0.0413389c-0.0578745,-0.0354333 -0.2126,-0.0933078 -0.433468,-0.167718l-0.152363 0.428744 0.140552 -0.04252 0.302365 -0.107481zm-4.11027 6.57879l-0.0200789 0.0295278m0.960244 -7.03824c0.0791345,0.238585 0.154726,0.477169 0.226773,0.718116 -0.321262,-0.0401578 -0.610635,-0.102757 -0.846857,-0.18071 -0.289372,-0.09567 -0.470082,-0.168899 -0.470082,-0.194883 0,-0.0259845 0.18071,-0.0992134 0.470082,-0.194883 0.179529,-0.0590556 0.388586,-0.109843 0.620084,-0.147639z"/></g></svg>
