<?xml version="1.0" encoding="utf-8"?>
<!-- Generator: Adobe Illustrator 22.1.0, SVG Export Plug-In . SVG Version: 6.00 Build 0)  -->
<svg version="1.1" id="Layer_1" xmlns="http://www.w3.org/2000/svg" xmlns:xlink="http://www.w3.org/1999/xlink" x="0px" y="0px"
	 viewBox="0 0 15 51.4" style="enable-background:new 0 0 15 51.4;" xml:space="preserve">
<g>
	<path d="M14.5,18.3c0-0.2,0.1-2.6,0.2-4.3c-0.1-0.4-0.3,0-0.2,0.2c-1.1,0,0.3-0.9,0.5-1.2c-1.2-2,0.3-2.1-1.2-3.6
		c1.1-1,0.4-2.7,0.2-4.6c-0.1-1.1,0.1-2.6-0.2-3.1c-0.9-1.5-2.1-0.3-2.2-1.7C10.3,0,9,0,7.7,0C5.9,0.6,2.6-0.3,1.9,1.4
		C1.4,9.1,1.1,17.6,0,25c0,0.4,0,0.8,0,1.2c1.7,2.1,3.2,4.5,4.1,7.5c-2.4,3.4-3,16.6,2.4,17.6c2.9,0.5,5.5-0.7,6.3-3.1
		c0.7-2.1,0.6-8.4,0-11.1c-0.3-1.4-1.6-2-1.7-3.1c-0.1-1.1,0.8-3.8,1.4-5.1c0.7-1.3,2.1-1.8,2.4-3.1C15.2,24.4,14.4,20.2,14.5,18.3z
		 M8.9,48.4c-0.5-0.6-1.8-0.1-2.9-1c-0.3-4.3-2.4-10.3,2.2-12.3c0.4,0.8,1.7,0.7,2.2,1.4C10.4,40.1,12.3,46.6,8.9,48.4z M12.8,25.3
		c-0.3,1.1-1.4,1.4-1.9,2.2c-1.2,1.8-1,4-2.4,5.3c-2.5-0.6-1.6-3.6-3.1-6c-0.4-0.4-0.9-0.5-1.7-0.5C4.2,19.6,4.4,12,5.3,3.6
		c2.3,0.1,4.1-0.4,5.5-0.5c0.1,3.4,0.4,7,0.7,11.3C11.8,18.2,13.3,23.1,12.8,25.3z"/>
</g>
</svg>
