<?xml version="1.0" encoding="UTF-8" standalone="no"?>
<svg width="79px" height="73px" viewBox="0 0 79 73" version="1.1" xmlns="http://www.w3.org/2000/svg" xmlns:xlink="http://www.w3.org/1999/xlink">
    <!-- Generator: Sketch 41.2 (35397) - http://www.bohemiancoding.com/sketch -->
    <title>Page 1</title>
    <desc>Created with Sketch.</desc>
    <defs>
        <polygon id="path-1" points="0 73 79 73 79 0 0 0"></polygon>
    </defs>
    <g id="Page-1" stroke="none" stroke-width="1" fill="none" fill-rule="evenodd">
        <g id="home-step-1" transform="translate(-1012.000000, -1204.000000)">
            <g id="section-steps" transform="translate(0.000000, 799.000000)">
                <g id="steps" transform="translate(106.000000, 356.000000)">
                    <g id="col-3" transform="translate(825.000000, 0.000000)">
                        <g id="Page-1" transform="translate(81.000000, 49.000000)">
                            <path d="M3.76190476,61.6724138 L75.2380952,61.6724138 L75.2380952,33.2766724 C75.2380952,31.5850862 73.2643492,30.2068966 71.495,30.2068966 L66.479127,30.2068966 C64.7624444,30.2068966 63.952381,31.5548793 63.952381,33.2766724 L63.952381,49.7155172 C63.952381,50.7576552 62.5742698,51.6034483 61.5359841,51.6034483 L16.393127,51.6034483 C15.3548413,51.6034483 15.047619,50.7576552 15.047619,49.7155172 L15.047619,33.2766724 C15.047619,31.5850862 13.073873,30.2068966 11.3045238,30.2068966 L6.28865079,30.2068966 C4.57196825,30.2068966 3.76190476,31.5548793 3.76190476,33.2766724 L3.76190476,61.6724138 L3.76190476,61.6724138 Z M76.5836032,65.4482759 L1.34550794,65.4482759 C0.307222222,65.4482759 0,64.6024828 0,63.5603448 L0,33.2766724 C0,29.4391379 2.46279365,26.4310345 6.28865079,26.4310345 L11.3045238,26.4310345 C15.1479365,26.4310345 18.8095238,29.502069 18.8095238,33.2766724 L18.8095238,47.8275862 L60.1904762,47.8275862 L60.1904762,33.2766724 C60.1904762,29.4391379 62.6532698,26.4310345 66.479127,26.4310345 L71.495,26.4310345 C75.3384127,26.4310345 79,29.502069 79,33.2766724 L79,63.5603448 C79,64.6024828 77.6218889,65.4482759 76.5836032,65.4482759 L76.5836032,65.4482759 Z" id="Fill-1" fill="#CBB788"></path>
                            <path d="M18.8095238,47.8275862 L60.1904762,47.8275862 L60.1904762,32.6234483 C60.1904762,29.4605345 61.4444444,26.7859655 65.2063492,25.9628276 L65.2063492,6.84563793 C65.2063492,5.15405172 63.2326032,3.77586207 61.463254,3.77586207 L15.0664286,3.77586207 C13.349746,3.77586207 12.5396825,5.12384483 12.5396825,6.84563793 L12.5396825,26.4348103 C15.047619,26.5568966 18.8095238,29.3686552 18.8095238,32.8084655 L18.8095238,47.8275862 Z M61.5359841,51.6034483 L16.393127,51.6034483 C15.3548413,51.6034483 15.047619,50.7576552 15.047619,49.7155172 L15.047619,32.8084655 C15.047619,31.3748966 13.2820317,30.2068966 11.769746,30.2068966 L10.1232857,30.2068966 C9.085,30.2068966 8.77777778,29.3611034 8.77777778,28.3189655 L8.77777778,6.84563793 C8.77777778,3.00810345 11.2405714,0 15.0664286,0 L61.463254,0 C65.3066667,0 68.968254,3.07103448 68.968254,6.84563793 L68.968254,27.5889655 C68.968254,28.6311034 68.1255873,29.4768966 67.0873016,29.4768966 C65.3580794,29.4768966 63.952381,30.8878103 63.952381,32.6234483 L63.952381,49.7155172 C63.952381,50.7576552 62.5742698,51.6034483 61.5359841,51.6034483 L61.5359841,51.6034483 Z" id="Fill-3" fill="#CBB788"></path>
                            <path d="M26.3333333,39.0172414 L52.6666667,39.0172414 L52.6666667,31.2326724 C52.6666667,28.8098276 53.9206349,27.4266034 55.1746032,26.780931 L55.1746032,15.6559828 C55.1746032,13.9643966 53.2008571,12.5862069 51.4315079,12.5862069 L25.0981746,12.5862069 C23.3814921,12.5862069 22.5714286,13.9341897 22.5714286,15.6559828 L22.5714286,26.5782931 C23.8253968,27.1799138 26.3333333,28.8765345 26.3333333,31.8619828 L26.3333333,39.0172414 Z M54.0121746,42.7931034 L23.9169365,42.7931034 C22.8786508,42.7931034 22.5714286,41.9473103 22.5714286,40.9051724 L22.5714286,31.8619828 C22.5714286,31.3824483 22.5714286,30.1049483 20.7820159,30.1049483 C19.7424762,30.1049483 18.8095238,29.2604138 18.8095238,28.2182759 L18.8095238,15.6559828 C18.8095238,11.8184483 21.2723175,8.81034483 25.0981746,8.81034483 L51.4315079,8.81034483 C55.2749206,8.81034483 58.9365079,11.8813793 58.9365079,15.6559828 L58.9365079,28.2182759 C58.9365079,29.2604138 58.0938413,30.1062069 57.0555556,30.1062069 C56.7721587,30.1288621 56.4285714,30.2811552 56.4285714,31.2326724 L56.4285714,40.9051724 C56.4285714,41.9473103 55.0504603,42.7931034 54.0121746,42.7931034 L54.0121746,42.7931034 Z" id="Fill-5" fill="#CBB788"></path>
                            <mask id="mask-2" fill="white">
                                <use xlink:href="#path-1"></use>
                            </mask>
                            <g id="Clip-8"></g>
                            <path d="M6.26984127,69.2241379 L8.77777778,69.2241379 L8.77777778,65.4482759 L6.26984127,65.4482759 L6.26984127,69.2241379 Z M12.5396825,71.112069 C12.5396825,72.1542069 11.6970159,73 10.6587302,73 L4.38888889,73 C3.35060317,73 2.50793651,72.1542069 2.50793651,71.112069 L2.50793651,63.5603448 C2.50793651,62.5182069 3.35060317,61.6724138 4.38888889,61.6724138 L10.6587302,61.6724138 C11.6970159,61.6724138 12.5396825,62.5182069 12.5396825,63.5603448 L12.5396825,71.112069 Z" id="Fill-7" fill="#CBB788" mask="url(#mask-2)"></path>
                            <path d="M70.2222222,69.2241379 L72.7301587,69.2241379 L72.7301587,65.4482759 L70.2222222,65.4482759 L70.2222222,69.2241379 Z M76.4920635,71.112069 C76.4920635,72.1542069 75.6493968,73 74.6111111,73 L68.3412698,73 C67.3029841,73 66.4603175,72.1542069 66.4603175,71.112069 L66.4603175,63.5603448 C66.4603175,62.5182069 67.3029841,61.6724138 68.3412698,61.6724138 L74.6111111,61.6724138 C75.6493968,61.6724138 76.4920635,62.5182069 76.4920635,63.5603448 L76.4920635,71.112069 Z" id="Fill-9" fill="#CBB788" mask="url(#mask-2)"></path>
                        </g>
                    </g>
                </g>
            </g>
        </g>
    </g>
</svg>
