<?xml version="1.0" encoding="utf-8"?>
<!-- Generator: Adobe Illustrator 22.1.0, SVG Export Plug-In . SVG Version: 6.00 Build 0)  -->
<svg version="1.1" id="Layer_1" xmlns="http://www.w3.org/2000/svg" xmlns:xlink="http://www.w3.org/1999/xlink" x="0px" y="0px"
	 viewBox="0 0 40 56.8" style="enable-background:new 0 0 40 56.8;" xml:space="preserve">
<g>
	<g>
		<path d="M8,34.6c1.3,0.4,6.5-1.1,9.8-0.7c1.4,0.2,4,0.2,5.6-0.5c0-0.4,0-0.8,0-1.2c-1.6-1.2-3.2-0.2-3.9-1.5
			c-1,0.7-1.5-0.3-3.4-0.2c-2,0-8.8,0.3-9.5,1.5C6.1,32.8,7.1,34.4,8,34.6z"/>
		<path d="M30.2,41c-0.2-0.4,1.5-3.3-1.5-4.1c-1.2,0.1-0.7,1.4-1.7,0.5c-0.5,0.9-0.6,2.4-0.5,3.9c-1.9,0-2.4,0-3.7,0.7
			c-0.3,1.5,0.1,1.5,0.7,2.7c1.1,0,2.3,0,3.4,0c0.3,1.5-0.2,2.4,0.7,3.4c2.6,0.6,1.6-3.2,2-4.1c1.3-0.1,3.3,0.3,3.9-0.5
			C32.9,40.8,31,42.3,30.2,41z"/>
		<path d="M40,46.1c-0.6-10.8-0.1-22.7-0.2-33.9c-3.2-3.3-6-7-9.5-10c0-0.7,0.4-0.5,0-1c-0.4,0.1-5.4-1.5-3.7-0.5
			c-1.2-0.4-1.8,0.6-2.2,0.2c0.1-0.5,0.7-0.5,0.2-1c-0.1,0-0.2,0-0.2,0c0,0.2,0,0.5,0,0.7c-0.8,0.2-0.8-0.4-1.2-0.5
			c0-0.1,0-0.2,0-0.2c-0.5,0-1,0-1.5,0c-0.1,0.8-1.2,1.1-1.7,0.7c0,0,1.2-0.3,0.5-0.7c-0.2,0-0.3,0-0.5,0c-0.7,0.8-2.1,0-2.9,1
			c0.2-0.8-0.3-0.8-1-0.7c0-0.1,0-0.2,0-0.2c-0.1,0-0.2,0-0.2,0c-0.2,0.4-0.8,0.5-1.5,0.5c0-0.2,0-0.3,0-0.5c-0.7,0-1.5,0-2.2,0
			C9.5,0.9,6-0.2,3.4,1c0.2-0.5,0.7-0.2,0.2-0.7C1.6,0.6,0.4,0.4,0,2.4c0,0.9,0,1.8,0,2.7C0.5,6.2,0.4,7.8,0,9c0,0.7,0,1.3,0,2
			c0.4,13.4,0.7,25.2,0.2,35.9c0,0.8-0.1,3,0,4.9c0.1,1.3,0,4.1,0.2,4.4c0.7,0.9,3.9,0.8,5.9,0.7c11.3-0.1,22.3-0.8,32.9-0.7
			c1.2-1.2-0.1-4.8,0.7-6.3C40,48.5,40,47.3,40,46.1z M29.5,4.9c1.3,0.9,2.3,2.2,2.9,3.9c-1.1-0.4,0.7,1.6,1.5,1.7
			c-1.5,0.7-2.9,1.4-4.4,0.5C29.5,8.9,29.5,6.9,29.5,4.9z M37.3,53.9C28,54.4,14.4,54,3.2,54.1c-0.1-5.9,0.5-11.4,0.7-14.9
			c0.2-1.9,0.1-3.1-0.7-4.4c0.4-1.2,1,0.3,0.7,1.2c0.5-1.2,0.5-1.6-0.2-2c1.3-1.4,0.2-1.9,0-3.7C3.9,30.5,3.8,31,4.1,31
			c0-0.8,0-2.4-0.7-3.4c0.3,0,0.7,0,0.7-0.2C4,22.9,4.5,18.4,3.4,14.9c0.5,0.2,0.2,0.7,0.7,0.2c0-3.4-0.3-6.7-0.2-11
			c9.5,0,14.9-0.4,22.9,0c0.8,2.9-0.9,6.2,0,8.8c1.1,3.1,7.1,0.2,10.2,1.2C37.4,26.4,37.9,40.4,37.3,53.9z"/>
		<path d="M28.3,19.3c0.5-0.7-2.5-0.7-1.2-0.2c-1.1,0.3-0.5-0.9-1.5-0.7c-0.5,1.2-2.9-0.3-4.6,0.2c-0.4,0.1-0.5,0.3-0.7,0.4
			c0,0-0.1,0.1-0.3,0.1c0.1,0,0.2,0,0.3-0.1c0-0.1-0.8-0.4-0.7-0.4c-3.4,0.2-9.5,0.3-12.7,0.7c-0.3,1.3-0.2,2.1,0.5,2.9
			c6.8-0.3,17.1-0.4,26.1-0.7c-0.1-0.5,0.3-0.5,0.2-1C32.4,18.9,29.8,19.2,28.3,19.3z"/>
		<path d="M28.3,25.4c0.5-0.7-2.5-0.7-1.2-0.2c-1.1,0.3-0.5-0.9-1.5-0.7c-0.5,1.2-2.9-0.3-4.6,0.2c-0.4,0.1-0.5,0.3-0.7,0.4
			c0,0-0.1,0.1-0.3,0.1c0.1,0,0.2,0,0.3-0.1c0-0.1-0.8-0.4-0.7-0.4c-3.4,0.2-9.5,0.3-12.7,0.7c-0.3,1.3-0.2,2.1,0.5,2.9
			c6.8-0.3,17.1-0.4,26.1-0.7c-0.1-0.5,0.3-0.5,0.2-1C32.4,25,29.8,25.3,28.3,25.4z"/>
		<path d="M12.4,10.7c2.2-0.8,7.9,0.3,11.5-1.2c-0.2-0.7,0.3-0.6,0.2-1.2c-0.4-1.6-2.4-1.7-4.9-1.5c-3.9,0.4-8.1,0.4-12,0.7
			C7.4,8,7,8.1,7.1,8.5C8.6,10.6,11.3,9.2,12.4,10.7z"/>
		<path d="M12.4,16.8c2.2-0.8,7.9,0.3,11.5-1.2c-0.2-0.7,0.3-0.6,0.2-1.2c-0.4-1.6-2.4-1.7-4.9-1.5c-3.9,0.4-8.1,0.4-12,0.7
			c0.1,0.5-0.3,0.5-0.2,1C8.6,16.7,11.3,15.3,12.4,16.8z"/>
		<path d="M19.3,47.8c0-0.7,0.8-0.5,0.7-1.2c0.1-1.5-2.1-2.1-2.7-3.7c-2.5-0.3-2.7,0.7-4.9,1c-0.2-0.7-0.7-1.1-1.7-1
			c-0.7,1.2-3.6,2.3-2.2,4.1c1.4,0.3,1.9-1,2.9,0c-1.4,0.2-5.1-0.2-5.1,2.2c0.4,0.5,0.8,1,1.2,1.5c4.3-0.6,9.7,0,13.9-1.2
			C21.8,47.8,19.7,48,19.3,47.8z"/>
	</g>
</g>
</svg>
