<?xml version="1.0" encoding="utf-8"?>
<!-- Generator: Adobe Illustrator 22.0.0, SVG Export Plug-In . SVG Version: 6.00 Build 0)  -->
<svg version="1.1" id="Layer_1" xmlns="http://www.w3.org/2000/svg" xmlns:xlink="http://www.w3.org/1999/xlink" x="0px" y="0px"
	 viewBox="0 0 75 84" style="enable-background:new 0 0 75 84;" xml:space="preserve">
<style type="text/css">
	.st0{fill:#788188;}
</style>
<title>Page 1</title>
<desc>Created with Sketch.</desc>
<g id="Page-1_1_">
	<g id="home-step-1" transform="translate(-191.000000, -1194.000000)">
		<g id="section-steps" transform="translate(0.000000, 799.000000)">
			<g id="steps" transform="translate(106.000000, 356.000000)">
				<g id="col-3">
					<g id="Page-1" transform="translate(85.000000, 39.000000)">
						<path id="Fill-1" class="st0" d="M68.3,80H71v-5.3h-2.7V80z M38.8,70.7V53.3h27.5H71v17.3h-5.3L38.8,70.7L38.8,70.7z
							 M8.1,70.7H4V53.3h22.1h8.7v17.3L8.1,70.7L8.1,70.7z M4,80h2.7v-5.3H4V80z M71,4v6.7c-0.1,0-0.3-0.1-0.4-0.1H58
							c-0.8,0-1.6,0.5-1.9,1.3L51.2,24H29.5V12.7c0-1.1-0.9-2-2-2H11.4c-1.1,0-2,0.9-2,2V24H4V4H71z M58.1,24h-2.6l3.8-9.3h2.3
							L58.1,24z M64.5,24h-2.1l3.5-9.3h1.8L64.5,24z M71,24h-2.2l2.2-6.4V24z M13.4,24h12.1v-2.7H13.4V24z M13.4,17.3h12.1v-2.7
							H13.4V17.3z M66.3,36H26.1c-1.1,0-2,0.9-2,2v11.3H4V28h7.4h16.1h25.1H66h5v21.3h-2.7V38C68.3,36.9,67.4,36,66.3,36L66.3,36z
							 M60.3,49.3h4V40h-4C60.3,40,60.3,49.3,60.3,49.3z M52.2,49.3h4V40h-4V49.3z M44.2,49.3h4V40h-4V49.3z M36.2,49.3h4V40h-4
							V49.3z M28.1,49.3h4V40h-4C28.1,40,28.1,49.3,28.1,49.3z M72.4,0h-71C0.3,0,0,0.9,0,2v80c0,1.1,0.3,2,1.4,2h6.7
							c1.1,0,2.6-0.9,2.6-2v-7.3h53.6V82c0,1.1,0.3,2,1.4,2h6.7c1.1,0,2.6-0.9,2.6-2V2C75,0.9,73.5,0,72.4,0L72.4,0z"/>
						<path id="Fill-3" class="st0" d="M43.5,59.3c-1.1,0-2,0.9-2,2V64c0,1.1,0.9,2,2,2s2-0.9,2-2v-2.7
							C45.5,60.2,44.6,59.3,43.5,59.3"/>
						<path id="Fill-4" class="st0" d="M30.1,59.3c-1.1,0-2,0.9-2,2V64c0,1.1,0.9,2,2,2s2-0.9,2-2v-2.7
							C32.1,60.2,31.2,59.3,30.1,59.3"/>
					</g>
				</g>
			</g>
		</g>
	</g>
</g>
</svg>
