<svg id="Layer_1" data-name="Layer 1" xmlns="http://www.w3.org/2000/svg" viewBox="0 0 100 80"><defs><style>.cls-1{fill:#575757;}</style></defs><title>LogoMaderMakersWeb</title><path class="cls-1" d="M21.36,23a1.81,1.81,0,0,1-.39.5,1.48,1.48,0,0,1-.58.28q0,8.31-.05,16.61a.73.73,0,0,0,.1.43,1.12,1.12,0,0,0,.24.19,2.58,2.58,0,0,1,.55.48,1.24,1.24,0,0,1,.27.83v1.32q-3.15.27-6.3.62V43a1.48,1.48,0,0,1,.27-.9,3.2,3.2,0,0,1,.55-.59.87.87,0,0,0,.26-.24,1,1,0,0,0,.08-.45l0-11.77a.1.1,0,0,0,0-.07s0,0-.08.1c-.71,1.42-1.35,2.72-1.92,3.89-.25.5-.5,1-.73,1.48L13,35.75l-.49,1c-.14.28-.22.46-.24.52a.81.81,0,0,1-.55.38,3.94,3.94,0,0,1-.93.2,4.17,4.17,0,0,1-.94,0c-.29,0-.48-.12-.54-.27A3.65,3.65,0,0,1,9,37.12c-.12-.26-.29-.57-.49-.95l-.66-1.24c-.24-.46-.47-.94-.7-1.42C6.61,32.39,6,31.14,5.3,29.74a.09.09,0,0,0-.08-.06s0,.06,0,.17l0,12.07a.7.7,0,0,0,.11.45,1.7,1.7,0,0,0,.23.24A2.21,2.21,0,0,1,6,43.1a1.37,1.37,0,0,1,.27.89V45.4q-3.15.43-6.28.93V44.86a1.79,1.79,0,0,1,.27-1,3.38,3.38,0,0,1,.54-.65A1.13,1.13,0,0,0,1.06,43a1.05,1.05,0,0,0,.12-.42q0-9.2,0-18.4a1.07,1.07,0,0,1-.58-.29A1.24,1.24,0,0,1,.2,23.3,2.18,2.18,0,0,1,0,22.35V20.81H4.67a.77.77,0,0,1,.71.5q2.68,5.75,5.37,11.15,2.65-5.73,5.31-11.18a.7.7,0,0,1,.51-.37,2.45,2.45,0,0,1,.65-.1h4.33v1.38A1.67,1.67,0,0,1,21.36,23Z"/><path class="cls-1" d="M37.86,40.19a1.56,1.56,0,0,1,.53.45,1.25,1.25,0,0,1,.26.81v1.16c-2.11.08-4.22.17-6.33.29V41.83a2,2,0,0,1,.12-.77,1.67,1.67,0,0,1,.28-.44l.29-.34a.67.67,0,0,0,.14-.43c-.12-.53-.19-1-.24-1.32s-.09-.63-.13-.83a1,1,0,0,0-.19-.44.49.49,0,0,0-.36-.12H32l-2.87.13a1.34,1.34,0,0,0-.45.08.41.41,0,0,0-.17.34,3.78,3.78,0,0,0,0,.54,5.9,5.9,0,0,1-.09.81c0,.32-.09.67-.14,1.05a.8.8,0,0,0,.12.49q.12.15.24.33a3.52,3.52,0,0,1,.24.4,1.62,1.62,0,0,1,.12.71V43.1q-3.11.21-6.21.47V42.36a1.38,1.38,0,0,1,.17-.73,2.6,2.6,0,0,1,.38-.47l.43-.4a1.13,1.13,0,0,0,.32-.48c.65-2.71,1.29-5.4,1.94-8.07.23-1,.46-2,.7-2.92s.46-1.81.64-2.56.33-1.37.45-1.84.17-.71.17-.73V24a.53.53,0,0,0-.15-.39l-.34-.34a1.84,1.84,0,0,1-.34-.49,2.09,2.09,0,0,1-.15-.9V20.81h2.95a10.41,10.41,0,0,1,1.83.1,2,2,0,0,1,1,.4,1.63,1.63,0,0,1,.49.84c0,.08.1.38.22.92s.29,1.23.49,2.06.43,1.77.68,2.81.5,2.1.75,3.17q.87,3.76,2,8.49a.78.78,0,0,0,.21.36A2.43,2.43,0,0,0,37.86,40.19ZM32,34.38c.3,0,.42-.13.38-.34L31.53,30c-.11-.51-.22-1-.3-1.5s-.18-.93-.26-1.33-.14-.71-.18-1a4,4,0,0,1-.07-.4h-.07s0,.23-.1.61-.16.88-.28,1.48-.24,1.24-.38,1.95-.27,1.37-.4,2-.23,1.15-.31,1.59-.12.69-.12.75,0,.23.05.26a1,1,0,0,0,.46,0l1.13,0Z"/><path class="cls-1" d="M47.07,20.81a6,6,0,0,1,4.27,1.27,4.53,4.53,0,0,1,1.33,3.41V37.75a4.46,4.46,0,0,1-1.33,3.4,6.18,6.18,0,0,1-4.28,1.28q-3.78,0-7.56.15V41.42a1.85,1.85,0,0,1,.21-1,1.26,1.26,0,0,1,.55-.5.6.6,0,0,0,.41-.62q0-7.62,0-15.25a.69.69,0,0,0-.44-.67,1.31,1.31,0,0,1-.72-1.34V20.81Zm1.64,4.62a5.39,5.39,0,0,0-.05-.71,1.45,1.45,0,0,0-.22-.57,1.1,1.1,0,0,0-.5-.39,2.12,2.12,0,0,0-.87-.15H45.19a.43.43,0,0,0-.35.13.42.42,0,0,0-.12.3V39.3c0,.27.15.41.47.4l1.88,0a2,2,0,0,0,.88-.16,1.25,1.25,0,0,0,.49-.41,1.31,1.31,0,0,0,.23-.58,4.94,4.94,0,0,0,.05-.68Z"/><path class="cls-1" d="M59.56,23.76a.38.38,0,0,0-.13.28v5.5c0,.27.16.4.48.41l4,.06a.72.72,0,0,1,.36.11.36.36,0,0,1,.19.34v2.06c0,.27-.17.4-.52.39l-4-.08c-.32,0-.48.13-.48.4,0,2.05,0,4.11,0,6.16a.37.37,0,0,0,.17.33.59.59,0,0,0,.34.12l3,.1a.41.41,0,0,0,.45-.33,1.2,1.2,0,0,1,.66-.86,2.89,2.89,0,0,1,1.29-.18l1.19,0v3.51a.62.62,0,0,1-.26.52.89.89,0,0,1-.63.17l-2.12-.1c-2.39-.1-4.79-.18-7.18-.22l-2.06,0V41.29a2,2,0,0,1,.19-1,1.05,1.05,0,0,1,.53-.47.74.74,0,0,0,.31-.23.62.62,0,0,0,.14-.38q0-7.59,0-15.2a.68.68,0,0,0-.48-.66,1.18,1.18,0,0,1-.49-.45,1.68,1.68,0,0,1-.19-.89V20.81H65.39a1.27,1.27,0,0,1,.74.25c.24.17.36.33.36.49v3.33H65.13A1.94,1.94,0,0,1,64,24.56a2.08,2.08,0,0,1-.58-.56.73.73,0,0,0-.72-.35l-2.83,0A.48.48,0,0,0,59.56,23.76Z"/><path class="cls-1" d="M81.41,41.05a1.87,1.87,0,0,1,.48.49,1.59,1.59,0,0,1,.2.85c0,.56,0,1.12,0,1.68-1.1-.12-2.21-.22-3.31-.33a1.87,1.87,0,0,1-1.33-.6,1.79,1.79,0,0,1-.45-1.2q0-3.37,0-6.76a2,2,0,0,0-.39-1.33,2,2,0,0,0-1.45-.49l-1.44-.06c-.29,0-.44.12-.44.4,0,2.11,0,4.21,0,6.31a.88.88,0,0,0,.08.43,1,1,0,0,0,.26.23,2.85,2.85,0,0,1,.55.55,1.36,1.36,0,0,1,.27.86v1.3q-3.17-.26-6.32-.43V41.68a1.17,1.17,0,0,1,.28-.82,2.27,2.27,0,0,1,.54-.47,1.16,1.16,0,0,0,.24-.2.54.54,0,0,0,.1-.38q0-7.86,0-15.73v-.39a.21.21,0,0,0-.17-.21,2.85,2.85,0,0,1-.6-.48,1.27,1.27,0,0,1-.32-.92V20.81h7.19a6.78,6.78,0,0,1,2.31.38,5.24,5.24,0,0,1,1.77,1.07,4.51,4.51,0,0,1,1.13,1.62A5.35,5.35,0,0,1,81,26c0,.95,0,1.9,0,2.85a5.05,5.05,0,0,1-.3,1.79,2.79,2.79,0,0,1-1,1.3c-.27.19-.26.4,0,.62a2.55,2.55,0,0,1,1,1.5A8.43,8.43,0,0,1,81,36.13c0,1.41,0,2.82,0,4.24a.66.66,0,0,0,.12.42A1.2,1.2,0,0,0,81.41,41.05ZM77.07,25.68a1.74,1.74,0,0,0-.6-1.43A2.26,2.26,0,0,0,75,23.74H73.66c-.28,0-.41.14-.41.42,0,2,0,3.94,0,5.92a.39.39,0,0,0,.12.33.44.44,0,0,0,.26.1l1.74.06q1.05,0,1.38-.45a2.54,2.54,0,0,0,.32-1.41C77.08,27.7,77.08,26.69,77.07,25.68Z"/><path class="cls-1" d="M98.73,43.36a2.23,2.23,0,0,1,.52.62,1.82,1.82,0,0,1,.26,1v1.36c-2.09-.33-4.19-.64-6.28-.93V44.22a2.54,2.54,0,0,1,.11-.84,1.24,1.24,0,0,1,.28-.44l.28-.33a.72.72,0,0,0,.14-.46c-.11-.61-.19-1.12-.24-1.52s-.09-.72-.14-1a1.28,1.28,0,0,0-.18-.51.49.49,0,0,0-.36-.19l-.27,0L90,38.67a.93.93,0,0,0-.44,0c-.1,0-.15.14-.17.34a2.9,2.9,0,0,0,0,.57c0,.28,0,.56-.09.86s-.09.71-.13,1.11a1,1,0,0,0,.12.55q.12.18.24.39a5.36,5.36,0,0,1,.24.48,2,2,0,0,1,.12.79V45q-3.09-.39-6.2-.72V43a1.24,1.24,0,0,1,.17-.72,2.11,2.11,0,0,1,.37-.41l.43-.34a1,1,0,0,0,.32-.44q.94-4.06,1.89-8.2c.22-1,.45-2,.69-3s.45-1.9.63-2.69.32-1.44.44-1.94.16-.76.16-.78v-.16a.6.6,0,0,0-.15-.42l-.34-.38a1.94,1.94,0,0,1-.34-.53,2.16,2.16,0,0,1-.16-1V20.81h3a9.23,9.23,0,0,1,1.82.11,2,2,0,0,1,1,.45,2,2,0,0,1,.5.94l.22,1c.13.61.29,1.39.5,2.33s.43,2,.68,3.22.5,2.42.75,3.66c.6,2.92,1.28,6.25,2,10a1.16,1.16,0,0,0,.2.45A3.13,3.13,0,0,0,98.73,43.36Zm-5.89-7.49c.3,0,.42-.09.38-.33-.28-1.54-.55-3.06-.83-4.58-.11-.58-.22-1.14-.31-1.69s-.17-1-.25-1.48-.15-.79-.19-1.06-.07-.42-.07-.44H91.5s0,.25-.1.67l-.27,1.6c-.11.64-.24,1.35-.37,2.11l-.39,2.13c-.13.66-.23,1.22-.3,1.69s-.12.74-.12.8,0,.25,0,.29a1,1,0,0,0,.46.11l1.12.09Z"/><path class="cls-1" d="M61.68,4.49A4.93,4.93,0,0,1,60,4.09a6.15,6.15,0,0,1-1.67-1.25A4.76,4.76,0,0,1,57.68,2l.2-.2C58,1.65,57,0,56.88.15s-.2.17-.34.27C56.42.21,56.31,0,56.17,0a12.67,12.67,0,0,0-1.26.93c-.28.27-.4.41-.4.41l.29.39a5.44,5.44,0,0,0-1.19,1.05,26,26,0,0,1-2.07,2.38c-.18.14-.37.33-.58.52a9.14,9.14,0,0,1,1.4.69c.63-.45,1.16-.73,1.46-1s1.52-1.34,2.29-2c.24.21.46.3.53.52s0,1.35.07,2.22a3.71,3.71,0,0,1-.49,1.8,4.28,4.28,0,0,0,3.55-.79A4.44,4.44,0,0,0,61.68,4.49Z"/><path class="cls-1" d="M53.79,9,52.54,7.9a12.32,12.32,0,0,0-2.66-1.53,7.21,7.21,0,0,1-1.51-1.14,24.33,24.33,0,0,1-2.12-2.35,5.4,5.4,0,0,0-1.2-1l.29-.41c0-.28-.15-.13-.45-.39A9.32,9.32,0,0,0,43.6.2c-.14-.06-.25.2-.37.43-.14-.1-.27-.19-.35-.26s-1.1,1.52-1,1.66l.2.18a4.22,4.22,0,0,1-.54.88A6.13,6.13,0,0,1,40,4.39a4.88,4.88,0,0,1-1.7.44c-.07.06.13.68.74,1.43a6.92,6.92,0,0,0,1.24,1.11,4.26,4.26,0,0,0,1.71.76,2.77,2.77,0,0,0,1.84-.05,3.69,3.69,0,0,1-.54-1.78c0-.87-.07-2,0-2.22s.31-.33.55-.56c.27.21.6.47.91.74.64.54,1.24,1.12,1.4,1.24.32.25.91.46,1.58.92.23.16.57.43,1,.7A11.61,11.61,0,0,0,47.45,8,24.09,24.09,0,0,0,45,10.19c-.4.52.51,1.7.76,1.89s.7-.68.92-1.14A5,5,0,0,1,47.9,9.61a19.78,19.78,0,0,1,1.68-1.36L50,8l.43.27A18.71,18.71,0,0,1,52.17,9.5a4.88,4.88,0,0,1,1.22,1.33c.23.45.65,1.29.9,1.1s1.11-1.35.7-1.86A10.14,10.14,0,0,0,53.79,9Z"/><path class="cls-1" d="M29,73l.08-.18a.39.39,0,0,0,0-.3.38.38,0,0,0-.21-.22L28.09,72a.42.42,0,0,0-.31,0,.37.37,0,0,0-.23.19l-.69,1.41a.35.35,0,0,0,0,.3.41.41,0,0,0,.22.23c.25.12.51.25.77.36a.4.4,0,0,0,.32,0,.35.35,0,0,0,.23-.2l.08-.17.77.33-.08.18a1.19,1.19,0,0,1-.27.38,1.07,1.07,0,0,1-.4.23,1.26,1.26,0,0,1-1-.06l-.78-.37a1.25,1.25,0,0,1-.42-.3,1.33,1.33,0,0,1-.25-.41A1,1,0,0,1,26,73.6a.89.89,0,0,1,.12-.45l.7-1.39a1,1,0,0,1,.3-.36,1.2,1.2,0,0,1,.4-.22,1.12,1.12,0,0,1,.45-.05,1.17,1.17,0,0,1,.47.12l.72.34a1.21,1.21,0,0,1,.39.28,1.19,1.19,0,0,1,.25.38,1.34,1.34,0,0,1,.09.45,1,1,0,0,1-.1.45l-.07.18Z"/><path class="cls-1" d="M34.92,77.08l-.22.74-1.63-.5.25-.75.37.13v-.41l-1.22-.42-.25.33.38.13-.26.74c-.54-.19-1.07-.38-1.61-.59l.28-.73.38.15c.69-.86,1.35-1.72,2-2.6.38.14.77.26,1.15.39q0,1.64,0,3.27ZM33.7,75.47c0-.41,0-.82,0-1.23h0l-.73,1Z"/><path class="cls-1" d="M40.66,78.42l-.14.77c-.55-.1-1.11-.2-1.66-.32l.16-.76.33.06c-.08-.22-.17-.45-.25-.68l-.72-.16-.14.61.41.09-.17.76q-.82-.18-1.65-.39l.19-.75.4.1c.19-.76.37-1.52.55-2.28l-.39-.09.19-.76,1.82.42a1.46,1.46,0,0,1,.46.2,1.52,1.52,0,0,1,.33.34,1.33,1.33,0,0,1,.21.93,1.24,1.24,0,0,1-.24.52,1.2,1.2,0,0,1-.43.34l.38,1Zm-2.11-1.85.67.15a.52.52,0,0,0,.37-.07.46.46,0,0,0,.13-.65.45.45,0,0,0-.3-.2l-.67-.15Z"/><path class="cls-1" d="M45,75.87a1.5,1.5,0,0,1,.47.14,1.4,1.4,0,0,1,.38.3,1.3,1.3,0,0,1,.31.91,1.22,1.22,0,0,1-.14.48,1.32,1.32,0,0,1-.75.61,1.45,1.45,0,0,1-.51,0l-.7-.08L44,78.9l.42,0-.08.77c-.56,0-1.12-.12-1.68-.19l.1-.78.41.06.3-2.32-.4-.06.1-.77C43.81,75.74,44.42,75.81,45,75.87Zm-.17,1.71a.52.52,0,0,0,.36-.1.51.51,0,0,0,.17-.32.44.44,0,0,0-.12-.34.44.44,0,0,0-.32-.17l-.67-.07-.11.93Z"/><path class="cls-1" d="M51,76.09l0,1.16-.8,0v-.39h-.8v.78h.8v.78h-.82v.78h.83v-.39l.82,0,0,1.17c-1,0-2,0-3,0l0-.78h.41l.06-2.34h-.4l0-.78C49.19,76.11,50.1,76.11,51,76.09Z"/><path class="cls-1" d="M56.9,75.59l.11.77-.39,0L57,79.5l-.84.11c-.64-.74-1.26-1.48-1.85-2.24L54.49,79l.42,0,.07.78c-.56,0-1.12.1-1.68.13l0-.77.41,0-.17-2.34-.4,0L53,76q.59,0,1.17-.09c.58.76,1.19,1.51,1.82,2.25-.07-.54-.14-1.09-.2-1.63l-.4,0-.09-.77Z"/><path class="cls-1" d="M62,74.57l.29,1.13-.78.2-.09-.38-.39.09c.17.76.35,1.52.52,2.28l.41-.1.18.76c-.55.13-1.1.26-1.66.37l-.16-.76.41-.09-.48-2.29-.39.08.07.39-.79.15-.21-1.15C59.94,75.06,61,74.83,62,74.57Z"/><path class="cls-1" d="M68.4,75.81l.27.73c-.53.2-1.07.4-1.61.58l-.25-.74.32-.11-.56-.46-.71.23.19.6.4-.13.25.74c-.54.18-1.09.35-1.63.51L64.84,77l.41-.12-.69-2.23-.39.11L64,74c.6-.18,1.2-.37,1.79-.58a1.38,1.38,0,0,1,.49-.06,1.8,1.8,0,0,1,.47.12,1.21,1.21,0,0,1,.39.28,1,1,0,0,1,.26.41,1.25,1.25,0,0,1,.07.57,1.23,1.23,0,0,1-.2.52l.83.65Zm-2.79-.51.67-.22a.45.45,0,0,0,.28-.24.46.46,0,0,0,0-.36.51.51,0,0,0-.25-.27.47.47,0,0,0-.37,0l-.64.21Z"/><path class="cls-1" d="M71.92,73.52l.31.66.39-.18.33.7-1.56.73-.32-.72.39-.17-.31-.67c-.58-.32-1.15-.66-1.71-1l-.3.13-.3-.72,1.46-.64.32.71-.28.13.86.48.18-1-.28.14-.33-.71c.49-.23,1-.46,1.45-.71l.35.7-.3.15C72.17,72.21,72.05,72.86,71.92,73.52Z"/><rect class="cls-1" y="57.98" width="16.29" height="1.49"/><rect class="cls-1" x="83.71" y="57.98" width="16.29" height="1.49"/><path class="cls-1" d="M77.11,59.71s0-.08,0-.12l0-.13L77,59.41a.78.78,0,0,0-.92.34,8.68,8.68,0,0,1-1.55,1.64,3.65,3.65,0,0,1-.94.5,3.23,3.23,0,0,0,.24-1.76,5.46,5.46,0,0,0-.72-1.86l-.25-.49c-.15-.36-.16-.61,0-.76a.69.69,0,0,1,.31-.16,1.19,1.19,0,0,0,.42-.21.78.78,0,0,0,.32-.57.5.5,0,0,0-.15-.4c-.33-.4-.86-.2-1.14-.1a4.82,4.82,0,0,0-2.28,2.07c-.26.38-.5.77-.74,1.15s-.67,1.05-1,1.54l-.17.21A6.19,6.19,0,0,1,66.8,62a1.55,1.55,0,0,1-1.31.1.51.51,0,0,1-.24-.41,4,4,0,0,1,.19-1.4,8.81,8.81,0,0,1,1.68-3,.68.68,0,0,0,.19-.67.56.56,0,0,0-.42-.42h0a1.75,1.75,0,0,0-.84.22l-.18.08a2.94,2.94,0,0,1-1.94-.11,2,2,0,0,0-.3-1,.88.88,0,0,0-.81-.36.82.82,0,0,0-.69.46,1.2,1.2,0,0,0,.38,1.45,4.35,4.35,0,0,1,0,1,5.46,5.46,0,0,1-.87,1.92l-.08.12a5.11,5.11,0,0,1-3,2.11,2,2,0,0,1-1.66-.13,1.57,1.57,0,0,1-.24-1.3A4.9,4.9,0,0,0,59.88,59a2.11,2.11,0,0,0,.46-1.86A1.67,1.67,0,0,0,58.87,56a2.74,2.74,0,0,0-2.24.93,6,6,0,0,0-1.23,2.63c0,.1,0,.19-.06.28a.61.61,0,0,1-.13.37l-.08.09A7.77,7.77,0,0,1,53.44,62c-.2.13-.54.22-.68,0a5.22,5.22,0,0,1-.58-1.34c0-.16-.1-.31-.16-.47l.22-.13a3.39,3.39,0,0,0,.56-.37A3.81,3.81,0,0,0,54,57.83a1.58,1.58,0,0,0-.18-1.44A1.34,1.34,0,0,0,52.46,56a3.51,3.51,0,0,0-1.61.85A28.15,28.15,0,0,0,51.41,53a.59.59,0,0,0-.56-.62.69.69,0,0,0-.79.52c-.1.78-.22,1.7-.37,2.63-.25,1.32-.44,2.67-.61,4l0,.34a.65.65,0,0,1-.2.33l-.11.14-.07.09a5.67,5.67,0,0,1-1.85,1.65.31.31,0,0,1-.31-.06.8.8,0,0,1-.24-.63,11.69,11.69,0,0,1,.31-1.65,13.31,13.31,0,0,0,.28-1.37l.12-.51a5.45,5.45,0,0,1,.27-1,.83.83,0,0,0,.05-.55v0a.73.73,0,0,0-.6-.38.77.77,0,0,0-.69.31,1.59,1.59,0,0,0-.12.27,2.08,2.08,0,0,0-2.16-.21,3,3,0,0,0-1.31,1.8,9.26,9.26,0,0,0-.49,1.73,1.08,1.08,0,0,1-.33.54l-.19.23L41,61a4.46,4.46,0,0,1-1.49,1.35c-.44.18-.76.19-1,0s-.31-.49-.27-1c.11-.93.3-1.87.47-2.77s.33-1.69.45-2.55A3.17,3.17,0,0,0,39,54.34a2,2,0,0,0-2.1-1,2.7,2.7,0,0,0-1.44.79,4.22,4.22,0,0,0,0-1.66,1.93,1.93,0,0,0-2.16-1.35A3.53,3.53,0,0,0,31,52.71a3.34,3.34,0,0,0-.35-1,3.52,3.52,0,0,0-2.45-1.61,4.17,4.17,0,0,0-3.69,1.38A3.73,3.73,0,0,0,23.63,54a3.49,3.49,0,0,0,.76,2.32,2.64,2.64,0,0,0,1.69.88.78.78,0,0,0,.63-.27.52.52,0,0,0,.12-.5c-.09-.35-.42-.41-.64-.46l-.17,0a1.72,1.72,0,0,1-1.11-1.43,2.46,2.46,0,0,1,.42-2,2.78,2.78,0,0,1,1.86-1.21,2.25,2.25,0,0,1,1.76.38A1.93,1.93,0,0,1,29.8,53a8.16,8.16,0,0,1-.19,3.22c-.08.38-.15.77-.21,1.14-.14.69-.27,1.4-.39,2.07-.24,1.31-.48,2.67-.82,3.94a.6.6,0,0,0,.2.72l.06,0a.85.85,0,0,0,.31.06.72.72,0,0,0,.71-.45,5.86,5.86,0,0,0,.22-1c0-.19.07-.38.11-.57.21-1,.45-2.1.62-3.24.08-.38.15-.77.22-1.15a14.9,14.9,0,0,1,1.06-3.73A3.77,3.77,0,0,1,33,52.53a.86.86,0,0,1,1,.1,1.31,1.31,0,0,1,.13,1v.11c-.14.92-.32,1.85-.49,2.76-.1.51-.21,1-.3,1.53-.2.85-.34,1.71-.49,2.55s-.28,1.64-.47,2.45a.56.56,0,0,1,0,.12,1,1,0,0,0,0,.46.57.57,0,0,0,.28.35.65.65,0,0,0,.51.06c.31-.08.52-.36.62-.84s.16-.94.26-1.39c.06-.25.11-.49.15-.73.1-.44.18-.89.25-1.32s.19-1.09.33-1.63a6.06,6.06,0,0,1,1-2.44l0,0a3.17,3.17,0,0,1,1-.88.81.81,0,0,1,.87,0c.28.18.27.56.23,1.05-.09.78-.25,1.58-.41,2.35a21,21,0,0,0-.5,3.47,2.29,2.29,0,0,0,.45,1.45,2.12,2.12,0,0,0,2.32.53,5.34,5.34,0,0,0,2-1.56,1.82,1.82,0,0,0,.48.92,2,2,0,0,0,1.69.5,2.86,2.86,0,0,0,1.23-.58l.22-.15a1.33,1.33,0,0,0,.77.54,2.58,2.58,0,0,0,2.18-.77l.25-.23.1-.09a4.72,4.72,0,0,0-.08.67.6.6,0,0,0,.39.54.68.68,0,0,0,.73-.13,1.19,1.19,0,0,0,.28-.8c0-.35.08-.71.14-1.06,0-.2.06-.42.09-.63a2.57,2.57,0,0,0,.55-.06c.2.55.39,1.09.6,1.64a1.58,1.58,0,0,0,1.8,1A4.39,4.39,0,0,0,55.31,62a2,2,0,0,0,.3.67,2,2,0,0,0,1.37.79,5.48,5.48,0,0,0,4.13-1.23,7,7,0,0,0,1.62-1.78,5.86,5.86,0,0,0,1.14-2.78,4.72,4.72,0,0,0,1.17.13,6.82,6.82,0,0,0-.88,2,4.55,4.55,0,0,0-.22,2.46,1.67,1.67,0,0,0,1.5,1.23,3.51,3.51,0,0,0,2.76-.89,8,8,0,0,0,2-2.43q.24-.36.45-.72c.29-.47.58-.94.91-1.38A6.36,6.36,0,0,0,72,59.07a7.13,7.13,0,0,1,.34.76,2.44,2.44,0,0,1-.08,1.87.86.86,0,0,1-.62.43.82.82,0,0,1-.72-.19.85.85,0,0,1-.18-.22.71.71,0,0,0-.77-.41.68.68,0,0,0-.47.5,1,1,0,0,0,.23.9,2.85,2.85,0,0,0,2.12.75,5.66,5.66,0,0,0,4-1.59l0,0a5.39,5.39,0,0,0,1.26-1.63A1,1,0,0,0,77.11,59.71ZM57,59.2a3.57,3.57,0,0,1,1-1.61.9.9,0,0,1,1-.17c.07.06,0,.2,0,.4a1.47,1.47,0,0,1-.89,1A5.7,5.7,0,0,1,57,59.2Zm-5-1.91h0l.13.18a1.18,1.18,0,0,1,.7-.25.26.26,0,0,1,.09.29,3.15,3.15,0,0,1-2.48,2.05h0a1.37,1.37,0,0,1,.18-.65,5.57,5.57,0,0,1,1.5-1.43l-.12-.18ZM45.47,58a16.72,16.72,0,0,1-.3,1.72c-.1.52-.21,1.06-.28,1.61a.48.48,0,0,1-.25.34l-.14.08a1.38,1.38,0,0,1-.89.31h0c-.21,0-.37-.23-.39-.45a5.9,5.9,0,0,1,.46-2.76l.15-.47c.12-.38.29-.79.64-.92a1.06,1.06,0,0,1,.85.17A.41.41,0,0,1,45.47,58Z"/></svg>