<?xml version="1.0" encoding="UTF-8" standalone="no"?>
<svg width="80px" height="41px" viewBox="0 0 80 41" version="1.1" xmlns="http://www.w3.org/2000/svg" xmlns:xlink="http://www.w3.org/1999/xlink">
    <!-- Generator: Sketch 40.3 (33839) - http://www.bohemiancoding.com/sketch -->
    <title>Group 2</title>
    <desc>Created with Sketch.</desc>
    <defs></defs>
    <g id="Page-1" stroke="none" stroke-width="1" fill="none" fill-rule="evenodd">
        <g id="home-step-1" transform="translate(-600.000000, -163.000000)" fill="#FEFEFE">
            <g id="hero">
                <g id="text-healine" transform="translate(106.000000, 163.000000)">
                    <g id="Page-1" transform="translate(425.000000, 0.000000)">
                        <g id="Group-2" transform="translate(69.000000, 0.000000)">
                            <path d="M73.4599,13.7515 C70.3399,12.1665 68.6409,10.3435 67.8329,9.5455 C67.1659,8.8835 66.2909,7.5965 65.7669,6.7065 C66.0759,6.4095 66.3169,6.1735 66.4439,6.0455 C66.9369,5.5435 63.5619,0.1205 63.0949,0.5165 C62.8189,0.7485 62.4179,1.0695 61.9679,1.4265 C61.5359,0.6945 61.1689,-0.1745 60.7239,0.0305 C60.2299,0.2665 57.4409,2.2715 56.4799,3.1695 C55.5199,4.0705 55.1239,4.5375 55.1239,4.5375 C55.2959,4.7775 55.6529,5.2575 56.1009,5.8535 C54.8059,6.7435 53.3279,7.8695 52.0959,9.3805 C49.8659,12.1285 46.5389,16.2805 45.1449,17.3815 C44.5589,17.8485 43.8959,18.4865 43.2019,19.1235 C45.0249,19.8425 46.6309,20.6805 47.9179,21.4435 C50.0279,19.9215 51.8079,18.9825 52.8229,18.1545 C53.6299,17.4965 57.9139,13.6365 60.5209,11.3495 C61.3229,12.0555 62.0639,12.3815 62.2919,13.1215 C62.5639,13.9845 62.4389,17.6395 62.5149,20.5645 C62.5909,23.4895 61.1739,26.1185 60.8759,26.6205 C60.5769,27.1195 67.7239,27.8635 72.7979,23.9585 C77.8659,20.0515 79.5859,15.3925 79.2119,15.0945 C78.8479,14.7965 76.5909,15.3355 73.4599,13.7515" id="Fill-1"></path>
                            <path d="M52.7063,30.1329 C51.2293,28.8979 49.7323,27.5459 48.5023,26.5599 C45.8593,24.4299 41.4333,22.0909 39.5723,21.3909 C37.7113,20.6889 35.8953,18.6499 34.4793,17.5859 C33.0573,16.5249 29.6833,12.3749 27.3713,9.6889 C26.1233,8.2339 24.6353,7.1669 23.3253,6.3239 C23.7743,5.7019 24.1333,5.1979 24.3033,4.9509 C24.4623,3.9989 23.7913,4.4899 22.8093,3.6159 C21.8213,2.7419 18.9523,0.8889 18.4533,0.6689 C17.9873,0.4639 17.6383,1.3519 17.2053,2.1029 C16.7383,1.7709 16.3243,1.4709 16.0423,1.2479 C15.5653,0.8679 12.3523,6.3529 12.8573,6.8389 C12.9823,6.9579 13.2183,7.1659 13.5233,7.4259 C13.0623,8.3569 12.3583,9.6989 11.7243,10.3689 C10.9433,11.1849 9.2763,13.0789 6.1933,14.7499 C3.1063,16.4219 0.8343,15.9079 0.4763,16.2169 C0.2393,16.4249 0.9103,18.5079 2.9833,21.0249 C4.0063,22.2679 5.4103,23.5349 7.1233,24.7799 C8.9533,26.1079 10.9743,26.9499 12.8753,27.3329 C16.3573,28.0339 19.2873,27.4749 19.0833,27.1569 C18.7743,26.6659 17.2553,24.0839 17.2443,21.1589 C17.2393,18.2359 17.0203,14.5769 17.2643,13.7089 C17.4853,12.9399 18.2813,12.6109 19.0893,11.8419 C20.0043,12.5489 21.1043,13.4159 22.1763,14.3189 C24.3263,16.1279 26.3313,18.0759 26.8823,18.4979 C27.9453,19.3199 29.9413,20.0389 32.1713,21.5769 C32.9413,22.1089 34.0903,23.0329 35.3753,23.9379 C33.9563,24.8429 32.5243,25.8519 31.4153,26.7969 C28.8273,28.9969 24.6543,32.5029 23.3133,34.2499 C21.9733,35.9999 25.0013,39.9559 25.8643,40.5849 C26.7273,41.2179 28.2083,38.3199 28.9523,36.7729 C29.7013,35.2269 31.3993,33.6309 32.9293,32.2799 C34.4703,30.9229 37.5523,28.3219 38.5463,27.7189 C38.7713,27.5829 39.2583,27.2719 39.8993,26.8569 C40.5863,27.2949 41.1163,27.6299 41.3553,27.7659 C42.3703,28.3409 45.6923,30.6159 47.2663,31.9289 C48.8393,33.2399 50.5793,34.8519 51.3713,36.3799 C52.1523,37.9069 53.5503,40.7389 54.4023,40.0819 C55.2483,39.4279 58.1213,35.5499 56.7323,33.8379 C55.9903,32.9199 54.4143,31.5619 52.7063,30.1329" id="Fill-4"></path>
                        </g>
                    </g>
                </g>
            </g>
        </g>
    </g>
</svg>