<svg id="Layer_1" data-name="Layer 1" xmlns="http://www.w3.org/2000/svg" xmlns:xlink="http://www.w3.org/1999/xlink" viewBox="0 0 101.64 59.98"><defs><style>.cls-1{fill:#fff;}.cls-2{mask:url(#mask);}.cls-3{fill:#788188;}.cls-4{mask:url(#mask-2-2);}</style><mask id="mask" x="0" y="0" width="32.34" height="59.74" maskUnits="userSpaceOnUse"><g transform="translate(0 -0.75)"><g id="mask-2"><polygon id="path-1" class="cls-1" points="32.34 0.75 0 0.75 0 60.5 32.34 60.5 32.34 0.75"/></g></g></mask><mask id="mask-2-2" x="69.3" y="0" width="32.34" height="59.74" maskUnits="userSpaceOnUse"><g transform="translate(0 -0.75)"><g id="mask-4"><polygon id="path-3" class="cls-1" points="101.64 30.63 101.64 0.75 69.3 0.75 69.3 60.5 101.64 60.5 101.64 30.63"/></g></g></mask></defs><title>mesa</title><g id="Page-1"><g id="home-step-1"><g id="section-steps"><g id="steps"><g id="col-3"><g id="Icon-3"><g id="Group-3"><g class="cls-2"><path id="Fill-1" class="cls-3" d="M29,36.82H3.39V4.14H7.25A1.89,1.89,0,0,1,9.14,6V27.37a4.31,4.31,0,0,0,4.3,4.3H27.06A1.89,1.89,0,0,1,29,33.56Zm-1.89-8.54H13.44a.91.91,0,0,1-.91-.91V6A5.29,5.29,0,0,0,7.25.75H1.69A1.7,1.7,0,0,0,0,2.45V58.8a1.7,1.7,0,1,0,3.39,0V40.21h22V58.8a1.7,1.7,0,1,0,3.39,0V40.21h1.89a1.7,1.7,0,0,0,1.7-1.69v-5a5.29,5.29,0,0,0-5.28-5.28Z" transform="translate(0 -0.75)"/></g></g><g id="Group-6"><g class="cls-4"><path id="Fill-4" class="cls-3" d="M98.25,36.82H72.69V33.56a1.89,1.89,0,0,1,1.89-1.89H88.19a4.31,4.31,0,0,0,4.3-4.3V6a1.9,1.9,0,0,1,1.9-1.89h3.86ZM99.94.75H94.39A5.29,5.29,0,0,0,89.1,6V27.37a.91.91,0,0,1-.91.91H74.58a5.29,5.29,0,0,0-5.28,5.28v5A1.69,1.69,0,0,0,71,40.21h1.9V58.8a1.69,1.69,0,1,0,3.38,0V40.21h22V58.8a1.7,1.7,0,1,0,3.39,0V2.45a1.7,1.7,0,0,0-1.7-1.7Z" transform="translate(0 -0.75)"/></g></g><path id="Fill-7" class="cls-3" d="M50.6,37.31l-9.22-13.1H59.83ZM26.21,17.66a2.59,2.59,0,0,1,2.58-2.58H70.13a2.58,2.58,0,0,1,2.57,2.58v3.16H26.21Zm49.88,6.55V17.66a6,6,0,0,0-6-6H68.51a4.79,4.79,0,0,0,1.56-3.54V5a1.7,1.7,0,1,0-3.39,0V8.16a1.41,1.41,0,1,1-2.82,0V5a1.7,1.7,0,1,0-3.39,0V8.16A4.79,4.79,0,0,0,62,11.7H36.88a4.79,4.79,0,0,0,1.56-3.54V5a1.7,1.7,0,1,0-3.39,0V8.16a1.41,1.41,0,1,1-2.82,0V5a1.7,1.7,0,1,0-3.39,0V8.16A4.79,4.79,0,0,0,30.4,11.7H28.79a6,6,0,0,0-6,6v6.55H37.23l11.3,16L36,58.07a1.69,1.69,0,1,0,2.77,2L50.6,43.19,62.14,59.57a1.69,1.69,0,1,0,2.77-2L52.68,40.25l11.3-16Z" transform="translate(0 -0.75)"/></g></g></g></g></g></g></svg>