<svg id="Layer_1" data-name="Layer 1" xmlns="http://www.w3.org/2000/svg" xmlns:xlink="http://www.w3.org/1999/xlink" viewBox="0 0 79 73"><defs><style>.cls-1{fill:#fff;}.cls-2{fill:#788188;}.cls-3{mask:url(#mask);}</style><mask id="mask" x="0" y="0" width="79" height="73" maskUnits="userSpaceOnUse"><g id="mask-2"><polygon id="path-1" class="cls-1" points="0 73 79 73 79 0 0 0 0 73"/></g></mask></defs><title>sofa</title><g id="Page-1"><g id="home-step-1"><g id="section-steps"><g id="steps"><g id="col-3"><g id="Page-1-2" data-name="Page-1"><path id="Fill-1" class="cls-2" d="M3.76,61.67H75.24V33.28c0-1.69-2-3.07-3.74-3.07h-5c-1.72,0-2.53,1.34-2.53,3.07V49.72c0,1-1.38,1.88-2.41,1.88H16.39c-1,0-1.34-.84-1.34-1.88V33.28c0-1.69-2-3.07-3.75-3.07h-5c-1.72,0-2.53,1.34-2.53,3.07V61.67Zm72.82,3.78H1.35c-1,0-1.35-.85-1.35-1.89V33.28c0-3.84,2.46-6.85,6.29-6.85h5c3.85,0,7.51,3.07,7.51,6.85V47.83H60.19V33.28c0-3.84,2.46-6.85,6.29-6.85h5c3.84,0,7.5,3.07,7.5,6.85V63.56c0,1-1.38,1.89-2.42,1.89Z"/><path id="Fill-3" class="cls-2" d="M18.81,47.83H60.19V32.62c0-3.16,1.25-5.83,5-6.66V6.85c0-1.7-2-3.07-3.75-3.07H15.07c-1.72,0-2.53,1.34-2.53,3.07V26.43c2.51.13,6.27,2.94,6.27,6.38ZM61.54,51.6H16.39c-1,0-1.34-.84-1.34-1.88V32.81c0-1.44-1.77-2.6-3.28-2.6H10.12c-1,0-1.34-.85-1.34-1.89V6.85C8.78,3,11.24,0,15.07,0H61.46C65.31,0,69,3.07,69,6.85V27.59a1.89,1.89,0,0,1-1.88,1.89A3.15,3.15,0,0,0,64,32.62v17.1c0,1-1.38,1.88-2.41,1.88Z"/><path id="Fill-5" class="cls-2" d="M26.33,39H52.67V31.23a4.73,4.73,0,0,1,2.5-4.45V15.66c0-1.7-2-3.07-3.74-3.07H25.1c-1.72,0-2.53,1.34-2.53,3.07V26.58c1.26.6,3.76,2.3,3.76,5.28ZM54,42.79H23.92c-1,0-1.35-.84-1.35-1.88v-9c0-.48,0-1.76-1.79-1.76a2,2,0,0,1-2-1.88V15.66c0-3.84,2.46-6.85,6.29-6.85H51.43c3.84,0,7.51,3.07,7.51,6.85V28.22a1.89,1.89,0,0,1-1.88,1.89c-.29,0-.63.17-.63,1.12v9.68c0,1-1.38,1.88-2.42,1.88Z"/><g class="cls-3"><path id="Fill-7" class="cls-2" d="M6.27,69.22H8.78V65.45H6.27Zm6.27,1.89A1.89,1.89,0,0,1,10.66,73H4.39a1.89,1.89,0,0,1-1.88-1.89V63.56a1.89,1.89,0,0,1,1.88-1.89h6.27a1.89,1.89,0,0,1,1.88,1.89Z"/></g><g class="cls-3"><path id="Fill-9" class="cls-2" d="M70.22,69.22h2.51V65.45H70.22Zm6.27,1.89A1.89,1.89,0,0,1,74.61,73H68.34a1.89,1.89,0,0,1-1.88-1.89V63.56a1.89,1.89,0,0,1,1.88-1.89h6.27a1.89,1.89,0,0,1,1.88,1.89Z"/></g></g></g></g></g></g></g></svg>